<svg xmlns="http://www.w3.org/2000/svg" width="24.928" height="35" viewBox="0 0 24.928 35"><defs><style>.a{fill:#b5adb6;}.b{fill:#fee97d;}.c{fill:#fedf30;}.d{fill:#a79ba7;}.e{fill:#b3dafe;}.f{fill:#8ac9fe;}.g{fill:#fff9e2;}</style></defs><g transform="translate(-73.671 -0.001)"><g transform="translate(78.606 0.863)"><path class="a" d="M176.774,62.894a15.227,15.227,0,0,1-1.122,4.854,15.034,15.034,0,0,1-.832,1.7.878.878,0,0,0,.337,1.206l.014.008a.875.875,0,0,0,1.051-.159,11.418,11.418,0,0,0,1-1.185,11.806,11.806,0,0,0,2.027-4.666,1.834,1.834,0,0,0-.878-1.636,1.893,1.893,0,0,0-1.6-.12Z" transform="translate(-172.732 -59.342)"/><path class="b" d="M224.718,213H215.9a2.734,2.734,0,0,1-2.734-2.734V198.723a9.23,9.23,0,0,1,3.35-7.114H224.1a9.23,9.23,0,0,1,3.35,7.114v11.541A2.734,2.734,0,0,1,224.718,213Z" transform="translate(-208.564 -179.373)"/><path class="c" d="M232.265,191.609h-1a9.23,9.23,0,0,1,2.294,6.089v3.084a11.191,11.191,0,0,1-11.191,11.191h-.362l-.085,0A2.729,2.729,0,0,0,224.061,213h8.818a2.734,2.734,0,0,0,2.734-2.734v-11.54A9.23,9.23,0,0,0,232.265,191.609Z" transform="translate(-216.727 -179.373)"/><path class="a" d="M256.12,146.609h-8.271a.684.684,0,0,0-.684.684V149a.684.684,0,0,0,.684.684h8.271A.684.684,0,0,0,256.8,149v-1.709A.684.684,0,0,0,256.12,146.609Z" transform="translate(-240.24 -137.449)"/><path class="d" d="M350.216,146.609h-2.051a.684.684,0,0,1,.684.684V149a.684.684,0,0,1-.684.684h2.051A.684.684,0,0,0,350.9,149v-1.709A.684.684,0,0,0,350.216,146.609Z" transform="translate(-334.336 -137.449)"/><path class="e" d="M190.075,32.055l-.4.8h-8.54a1.054,1.054,0,0,1-1.054-1.054,1.054,1.054,0,0,0-1.054-1.054h-3.163V27.609h16.026a1.4,1.4,0,0,1,1.4,1.4v.2a1.4,1.4,0,0,1-1.2,1.389A2.676,2.676,0,0,0,190.075,32.055Z" transform="translate(-173.814 -26.584)"/><path class="f" d="M352.176,27.609h-2.051a1.4,1.4,0,0,1,1.4,1.4v.2a1.4,1.4,0,0,1-1.2,1.389,2.676,2.676,0,0,0-2.015,1.453l-.4.8h2.051l.4-.8a2.677,2.677,0,0,1,2.015-1.453,1.4,1.4,0,0,0,1.2-1.389v-.2A1.4,1.4,0,0,0,352.176,27.609Z" transform="translate(-334.099 -26.584)"/><path class="a" d="M145.865,13.293V17.11a.684.684,0,0,0,.684.684h.684a.684.684,0,0,0,.684-.684V13.293a.684.684,0,0,0-.684-.684h-.684A.684.684,0,0,0,145.865,13.293Z" transform="translate(-145.865 -12.609)"/><path class="b" d="M257.418,104.309h8.237V107.2h-8.237Z" transform="translate(-249.792 -98.04)"/><path class="c" d="M347.911,104.309h2.051V107.2h-2.051Z" transform="translate(-334.099 -98.04)"/><circle class="g" cx="4.923" cy="4.923" r="4.923" transform="translate(6.821 18.008)"/><path class="b" d="M285.932,314.371l-1.277.471a.342.342,0,0,0-.2.2l-.471,1.277a.342.342,0,0,1-.641,0l-.471-1.277a.342.342,0,0,0-.2-.2l-1.277-.471a.342.342,0,0,1,0-.641l1.277-.471a.342.342,0,0,0,.2-.2l.471-1.277a.342.342,0,0,1,.641,0l.471,1.277a.342.342,0,0,0,.2.2l1.277.471A.342.342,0,0,1,285.932,314.371Z" transform="translate(-271.916 -291.12)"/></g><path d="M73.92.953l1.165.7a.513.513,0,0,0,.527-.879l-1.165-.7a.513.513,0,1,0-.527.879Zm1.428,2.124H74.184a.513.513,0,0,0,0,1.025h1.165a.513.513,0,1,0,0-1.025Zm-.264,2.451-1.165.7a.513.513,0,1,0,.527.879l1.165-.7a.513.513,0,0,0-.527-.88Zm21.6-4.152H81.156A1.2,1.2,0,0,0,79.974.35H79.29a1.2,1.2,0,0,0-1.2,1.2V5.364a1.2,1.2,0,0,0,1.2,1.2h.684a1.2,1.2,0,0,0,1.183-1.025h.86a14.627,14.627,0,0,1-.964,3.538,14.761,14.761,0,0,1-.8,1.64,1.385,1.385,0,0,0-.131,1.072A1.416,1.416,0,0,0,81.466,12.8a1.388,1.388,0,0,0,1-.423,11.911,11.911,0,0,0,1.041-1.239,12.1,12.1,0,0,0,1.8-3.623,1.554,1.554,0,0,0,.409.113V9.619a1.2,1.2,0,0,0-.7,1.088v1.709a1.194,1.194,0,0,0,.482.957,9.707,9.707,0,0,0-2.806,6.841V31.754A3.251,3.251,0,0,0,85.941,35H94.76a3.251,3.251,0,0,0,3.247-3.247V27.632a.513.513,0,0,0-1.025,0v4.122a2.224,2.224,0,0,1-2.222,2.222H85.941a2.224,2.224,0,0,1-2.222-2.222V20.213a8.688,8.688,0,0,1,3.025-6.6h7.211a8.688,8.688,0,0,1,3.025,6.6v5.368a.513.513,0,0,0,1.025,0V20.213A9.707,9.707,0,0,0,95.2,13.372a1.194,1.194,0,0,0,.482-.957V10.706a1.2,1.2,0,0,0-.7-1.088V7.252l.344-.689a2.164,2.164,0,0,1,1.629-1.174,2.041,2.041,0,0,0,1.644-2.1,1.918,1.918,0,0,0-1.916-1.916ZM80.144,5.364a.171.171,0,0,1-.171.171H79.29a.171.171,0,0,1-.171-.171V1.546a.171.171,0,0,1,.171-.171h.684a.171.171,0,0,1,.171.171Zm2.535,5.17a10.888,10.888,0,0,1-.951,1.132.374.374,0,0,1-.588-.445A15.794,15.794,0,0,0,82,9.465a15.661,15.661,0,0,0,1.051-3.93h.769a.542.542,0,0,1,.542.542,1.559,1.559,0,0,0,.119.6,11.148,11.148,0,0,1-1.8,3.86Zm11.978,1.881a.171.171,0,0,1-.171.171H86.215a.171.171,0,0,1-.171-.171V10.706a.171.171,0,0,1,.171-.171h1.758a.513.513,0,0,0,0-1.025H86.745V7.644h7.211V9.51H90.023a.513.513,0,0,0,0,1.025h4.463a.171.171,0,0,1,.171.171v1.709Zm2.152-8.041a3.19,3.19,0,0,0-2.4,1.731l-.257.514H85.929a.542.542,0,0,1-.542-.542A1.569,1.569,0,0,0,83.82,4.51H81.17V2.4H96.683a.892.892,0,0,1,.891.891A.989.989,0,0,1,96.809,4.374ZM90.35,18.357a5.436,5.436,0,1,0,5.436,5.436A5.442,5.442,0,0,0,90.35,18.357Zm0,9.847a4.411,4.411,0,1,1,4.411-4.411A4.416,4.416,0,0,1,90.35,28.2ZM92.8,22.992l-1.2-.443-.443-1.2a.847.847,0,0,0-.8-.559h0a.847.847,0,0,0-.8.559l-.443,1.2-1.2.443a.854.854,0,0,0,0,1.6l1.2.443.443,1.2a.855.855,0,0,0,1.6,0l.443-1.2,1.2-.443a.854.854,0,0,0,0-1.6ZM91.167,24.1a.853.853,0,0,0-.507.506l-.31.842-.31-.842a.853.853,0,0,0-.506-.506l-.842-.31.842-.31a.854.854,0,0,0,.506-.506l.31-.842.31.842a.853.853,0,0,0,.506.506l.842.31Z" transform="translate(0 0)"/></g></svg>