<svg xmlns="http://www.w3.org/2000/svg" width="34.157" height="35" viewBox="0 0 34.157 35"><defs><style>.a{fill:#7e707d;}.a,.b,.c,.d,.e{fill-rule:evenodd;}.b{fill:#a1d4ff;}.c{fill:#eff6ff;}.d{fill:#86beec;}.e{fill:#d9eeff;}</style></defs><g transform="translate(-6.165)"><g transform="translate(18.912 0.97)"><path class="a" d="M196.977,19.3c2.19,0,4.99-1.5,4.245-5.1a18.773,18.773,0,0,1-8.492-.012C191.941,18.894,196.977,19.3,196.977,19.3Z" transform="translate(-192.646 -14.19)"/></g><g transform="translate(6.677 0.513)"><path class="b" d="M23.66,7.5h2.3a4.283,4.283,0,0,0,8.547,0H40.2l4.155,3.831L46.8,19.109,46.361,36.68H42.155L40.124,18.6H38.107v8.794l1.307,14.084H21.048l1.305-14.084V18.6H20.336L18.3,36.68H14.1l-.436-17.571,2.445-7.778L20.263,7.5Z" transform="translate(-13.665 -7.5)"/></g><g transform="translate(34.84 26.766)"><path class="c" d="M430.177,394.481l.073-2.926h-4.606l.328,2.926h4.206Z" transform="translate(-425.643 -391.555)"/></g><g transform="translate(7.04 26.766)"><path class="c" d="M23.252,394.481l.33-2.926H18.976l.073,2.926h4.2Z" transform="translate(-18.976 -391.555)"/></g><g transform="translate(27.255 0.513)"><path class="d" d="M324.791,11.331l-4.086-3.77-.069-.061h-5.693v.061a3.962,3.962,0,0,1-.027.408,3.834,3.834,0,0,1-.234.911h4.657l4.155,3.831,2.192,7.338-.769,13.7h1.957l.363-14.645Z" transform="translate(-314.682 -7.5)"/></g><g transform="translate(37.417 26.766)"><path class="e" d="M465.3,394.481l.073-2.926h-1.957l-.073,2.926Z" transform="translate(-463.339 -391.555)"/></g><g transform="translate(11.272 8.752)"><path class="d" d="M82.221,137.371l.728-6.488a7.291,7.291,0,0,1-.714-2.858l-.583,1.925a7.825,7.825,0,0,0-.345,1.8l-.434,4.119A9.48,9.48,0,0,0,82.221,137.371Z" transform="translate(-80.873 -128.025)"/></g><g transform="translate(10.13 16.598)"><path class="d" d="M65.682,252.976l.973-8.669a9.474,9.474,0,0,1-1.348-1.5l-1.142,10.168Z" transform="translate(-64.165 -242.808)"/></g><g transform="translate(9.802 26.766)"><path class="e" d="M60.885,394.481l.33-2.926H59.7l-.328,2.926h1.515Z" transform="translate(-59.37 -391.555)"/></g><g transform="translate(29.604 8.422)"><path class="d" d="M350.562,135.184v-8.794a9.337,9.337,0,0,0-.41-3.187c-.811,0-1.032,1.2-1.1,2.512v9.47Z" transform="translate(-349.047 -123.202)"/></g><g transform="translate(29.604 20.404)"><path class="d" d="M351.869,312.561l-1.307-14.084h-1.515l1.305,14.084Z" transform="translate(-349.047 -298.477)"/></g><g transform="translate(6.165 0)"><path d="M43.321,120.018a.513.513,0,0,0-.5-.525h-.013a.513.513,0,0,0-.512.5l-.114,4.611H38.534L36.9,110.048a6.957,6.957,0,0,0,.663-3.814.513.513,0,1,0-1.02.106,5.941,5.941,0,0,1-.495,3.106H34.864a6.975,6.975,0,0,0-.9-3.645.513.513,0,1,0-.862.556,6.545,6.545,0,0,1,.741,3.6v8.287h-6.85V106.615a.513.513,0,1,0-1.025,0v11.626H19.115v-8.287a6.531,6.531,0,0,1,.742-3.6A.513.513,0,1,0,19,105.8a6.96,6.96,0,0,0-.9,3.646H16.91a5.925,5.925,0,0,1-.493-3.105.513.513,0,0,0-1.02-.108,6.942,6.942,0,0,0,.661,3.815L14.424,124.6H10.777c0-.2-.08-3.248-.113-4.57a.513.513,0,1,0-1.025.026q.05,1.982.1,3.964.05,2.016.1,4.032a.513.513,0,0,0,.513.5h4.2a.513.513,0,0,0,.509-.455l.326-2.905c0-.014,0-.028,0-.043l1.649-14.68h1.047v8.258l-1.3,14.06a.513.513,0,0,0,.51.56H35.662a.513.513,0,0,0,.511-.56l-1.3-14.06v-8.258h1.047l1.98,17.628a.513.513,0,0,0,.509.455H42.61a.513.513,0,0,0,.513-.5ZM10.85,127.53q-.024-.95-.047-1.9h3.506l-.213,1.9Zm15.117,4.795H17.859l1.21-13.058h6.9Zm9.133,0H26.992V119.266H30.94l0,.1c-.163,2.581-1.148,3.619-1.9,4.181a.513.513,0,1,0,.614.821,5.179,5.179,0,0,0,1.313-1.429,7,7,0,0,0,1.153,3.539c.064.112.13.228.2.351a.513.513,0,0,0,.894-.5c-.07-.125-.137-.243-.2-.356-.853-1.5-1.2-2.1-1.047-6.546,0-.053.006-.106.009-.159h1.919Zm3.762-4.795-.213-1.9h3.508l-.047,1.9Z" transform="translate(-9.401 -98.35)"/><path d="M40.3,11.968,37.853,4.19a.513.513,0,0,0-.142-.223L33.557.136A.513.513,0,0,0,33.209,0H27.516A.513.513,0,0,0,27,.513c0,.017,0,.034,0,.051A18.358,18.358,0,0,1,19.483.55c0-.012,0-.024,0-.037A.513.513,0,0,0,18.969,0H13.275a.512.512,0,0,0-.348.136L8.775,3.967a.513.513,0,0,0-.141.223L6.188,11.968a.513.513,0,0,0-.023.166q.044,1.79.088,3.579.045,1.835.09,3.671a.513.513,0,1,0,1.025-.025q-.045-1.836-.09-3.671-.043-1.747-.086-3.494L9.571,4.628l3.905-3.6h5.011a4.828,4.828,0,0,0,9.511,0h5.011l3.907,3.6,2.379,7.566-.178,7.184a.513.513,0,0,0,.5.525h.013a.513.513,0,0,0,.512-.5l.181-7.269a.513.513,0,0,0-.023-.167ZM23.243,3.994a3.756,3.756,0,0,1-3.56-2.358,19.7,19.7,0,0,0,3.613.337,19.155,19.155,0,0,0,3.5-.323A3.756,3.756,0,0,1,23.243,3.994Z" transform="translate(-6.165 0)"/></g></g></svg>