<svg xmlns="http://www.w3.org/2000/svg" width="30.71" height="35" viewBox="0 0 30.71 35"><defs><style>.a{fill:#f5a96c;}.a,.b,.c,.d,.e,.f{fill-rule:evenodd;}.b{fill:#fde588;}.c{fill:#eff6ff;}.d{fill:#7e707d;}.e{fill:#d9eeff;}.f{fill:#6a5c69;}</style></defs><g transform="translate(0.513 0.513)"><path class="a" d="M39.758,13.383c3.159-1.6,8.719-2.62,13.982-2.62s10.786,1.017,13.945,2.62a2.007,2.007,0,0,0,.879-1.494c0-2.424-6.644-4.389-14.843-4.389S38.879,9.465,38.879,11.889A2.007,2.007,0,0,0,39.758,13.383Z" transform="translate(-38.879 -7.5)"/></g><g transform="translate(0.513 4.902)"><path class="b" d="M42.221,78.019V75.4a.442.442,0,0,1,.442-.438h1.106A11.117,11.117,0,0,1,39.759,73.2a2.007,2.007,0,0,1-.879-1.494v4.042C38.88,76.61,40.132,77.4,42.221,78.019Z" transform="translate(-38.88 -71.707)"/></g><g transform="translate(25.309 4.902)"><path class="b" d="M403.163,78.019c2.088-.618,3.341-1.409,3.341-2.269V71.707a2.007,2.007,0,0,1-.879,1.494,11.118,11.118,0,0,1-4.009,1.763h1.106a.442.442,0,0,1,.442.438v2.616Z" transform="translate(-401.616 -71.707)"/></g><g transform="translate(2.567 12.306)"><path class="c" d="M92.429,199.726c2.067-1.048,2.245-1.721,1.993-4.116l-1.639-15.586H70.662L69.023,195.61c-.252,2.407-.074,3.068,1.993,4.116a24.364,24.364,0,0,0,21.413,0Z" transform="translate(-68.935 -180.024)"/></g><g transform="translate(3.853 8.159)"><path class="d" d="M94.046,123.506h16.261a.442.442,0,0,0,.442-.438V119.8a.442.442,0,0,0-.442-.438H88.188a.442.442,0,0,0-.442.438v3.271a.442.442,0,0,0,.442.438Z" transform="translate(-87.746 -119.359)"/></g><g transform="translate(13.891 12.306)"><path class="e" d="M248.741,195.61,247.1,180.024h-2.93l1.641,15.586c.25,2.4.074,3.068-1.993,4.116a23.182,23.182,0,0,1-9.242,2.444q.73.041,1.463.035a23.323,23.323,0,0,0,10.707-2.479C248.816,198.678,248.993,198.005,248.741,195.61Z" transform="translate(-234.578 -180.024)"/></g><g transform="translate(22.797 8.159)"><path class="f" d="M368.482,123.506a.442.442,0,0,0,.442-.438V119.8a.442.442,0,0,0-.442-.438h-3.614a.441.441,0,0,1,.438.438v3.271a.442.442,0,0,1-.442.438h3.618Z" transform="translate(-364.864 -119.359)"/></g><path d="M201.214,271.638a.513.513,0,0,0-.716.114l-3.872,5.339a.513.513,0,1,0,.83.6l3.872-5.339A.513.513,0,0,0,201.214,271.638Z" transform="translate(-185.238 -252.978)"/><path d="M215.973,272.452a.513.513,0,0,0,.716-.114L223.464,263a.513.513,0,1,0-.83-.6l-6.775,9.338A.513.513,0,0,0,215.973,272.452Z" transform="translate(-203.157 -244.263)"/><path d="M109.378,142.191h-.412a.513.513,0,0,0,0,1.025h.412a.513.513,0,1,0,0-1.025Z" transform="translate(-103.184 -132.471)"/><path d="M383.026,143.216h.412a.513.513,0,0,0,0-1.025h-.412a.513.513,0,0,0,0,1.025Z" transform="translate(-358.51 -132.471)"/><path d="M46.733,0C39.29,0,31.379,1.718,31.379,4.9V8.944c0,1.047,1.124,1.937,3.341,2.647v.277a.948.948,0,0,0,.4.775L34.5,18.562a.513.513,0,0,0,.456.563l.054,0a.513.513,0,0,0,.509-.459l.614-5.85h21.2l1.591,15.127c.232,2.2.126,2.671-1.715,3.605a23.852,23.852,0,0,1-20.949,0c-1.859-.943-1.956-1.37-1.715-3.6l.746-6.92a.513.513,0,0,0-1.019-.11l-.746,6.92c-.28,2.594-.029,3.462,2.27,4.628A23.9,23.9,0,0,0,46.575,35h.311a23.916,23.916,0,0,0,10.787-2.534,4.121,4.121,0,0,0,2.1-1.8,5.446,5.446,0,0,0,.17-2.828l-1.6-15.2a.948.948,0,0,0,.4-.775v-.277c2.217-.71,3.341-1.6,3.341-2.647V4.9c0-3.184-7.912-4.9-15.356-4.9ZM34.72,8.6v1.913c-1.694-.588-2.315-1.2-2.315-1.566V6.762a8.516,8.516,0,0,0,2.463,1.329A.941.941,0,0,0,34.72,8.6Zm21.9-.951H48.067a.513.513,0,0,0,0,1.025h9.656v3.122H35.745V8.672H45.68a.513.513,0,1,0,0-1.025H36.849a13.133,13.133,0,0,1-3.037-1.168,35.814,35.814,0,0,1,12.941-2.19,35.675,35.675,0,0,1,12.9,2.19,13.133,13.133,0,0,1-3.037,1.168Zm4.444,1.3c0,.37-.621.978-2.315,1.566V8.6a.941.941,0,0,0-.148-.506,8.516,8.516,0,0,0,2.463-1.329Zm-.457-3.163c-3.246-1.535-8.623-2.518-13.854-2.518-5.253,0-10.645.983-13.891,2.518A1.315,1.315,0,0,1,32.4,4.9c0-.9,1.488-1.875,3.979-2.612A38.1,38.1,0,0,1,46.733,1.025,38.113,38.113,0,0,1,57.084,2.29c2.492.737,3.98,1.713,3.98,2.612A1.314,1.314,0,0,1,60.607,5.781Z" transform="translate(-31.379)"/></svg>