<svg xmlns="http://www.w3.org/2000/svg" width="35" height="23.617" viewBox="0 0 35 23.617"><defs><style>.a{fill:#eff5f6;}.b{fill:#cbe5e7;}.c{fill:#27e19d;}.d{fill:#26d192;}.e{fill:#72f4c3;}.f{fill:#9ff7d3;}.g{fill:#c4fae3;}</style></defs><path class="a" d="M83.386,146.758a2.608,2.608,0,0,0-1.642-1.835,41.7,41.7,0,0,0-9.856-2.124l-.069,0a26.8,26.8,0,0,0-3.825,0l-.055,0a41.71,41.71,0,0,0-9.863,2.125,2.608,2.608,0,0,0-1.642,1.835,12.406,12.406,0,0,0,.02,4.149,2.609,2.609,0,0,0,.432,1.145c.024.568.071,1.21.149,1.937a2.637,2.637,0,0,0,.81,1.638c.014.118.028.224.04.316l0,.016a2.334,2.334,0,0,0,2.313,2.006h19.42a2.334,2.334,0,0,0,2.313-2.006l0-.016c.013-.092.026-.2.04-.316a2.637,2.637,0,0,0,.81-1.638c.078-.727.125-1.369.149-1.937a2.609,2.609,0,0,0,.432-1.145A12.405,12.405,0,0,0,83.386,146.758Z" transform="translate(-52.425 -138.661)"/><path class="b" d="M396.079,174.184a2.62,2.62,0,0,1-.432,1.145c-.025.568-.071,1.21-.15,1.937a2.639,2.639,0,0,1-.81,1.638c-.014.118-.027.224-.04.316l0,.016a2.334,2.334,0,0,1-2.313,2.006h-.4a2.667,2.667,0,0,0,.75-1.561l0-.017c.012-.1.026-.219.04-.351a3.059,3.059,0,0,0,.81-1.818c.078-.807.125-1.52.149-2.151a3.081,3.081,0,0,0,.432-1.271,15.263,15.263,0,0,0,.021-4.607A2.9,2.9,0,0,0,393,167.71c.485.15.972.313,1.455.489a2.608,2.608,0,0,1,1.642,1.835A12.418,12.418,0,0,1,396.079,174.184Z" transform="translate(-365.138 -161.937)"/><g transform="translate(7.521 15.974)"><path class="c" d="M110.018,316.941a10.527,10.527,0,0,0,19.928,0Z" transform="translate(-110.018 -316.941)"/><path class="d" d="M129.947,316.94a10.273,10.273,0,0,1-9.963,7.13q-.487,0-.945-.035h0a9.027,9.027,0,0,0,5.323-2.076.41.41,0,0,0-.326-.719c-1.062.166-1.988.268-2.681.329h0a20.864,20.864,0,0,1-2.743,0,39.284,39.284,0,0,1-6.686-1.175,10.65,10.65,0,0,1-1.906-3.453h19.927Z" transform="translate(-110.02 -316.94)"/></g><g transform="translate(7.235 13.619)"><path class="e" d="M105.846,282.488a20.9,20.9,0,0,0,.162,3.4.577.577,0,0,0,.377.463,36,36,0,0,0,9.7,1.847h.009a35.994,35.994,0,0,0,9.7-1.847.577.577,0,0,0,.377-.463,20.9,20.9,0,0,0,.162-3.4Z" transform="translate(-105.835 -282.488)"/><path class="c" d="M126.165,285.884a.579.579,0,0,1-.377.463c-.726.262-1.46.487-2.183.68h0a.577.577,0,0,0,.371-.461v-.006a.914.914,0,0,0-.8-1.029,61.235,61.235,0,0,0-7.086-.438,62.944,62.944,0,0,0-9.908.838c-.051.008-.1.015-.155.02a.476.476,0,0,1-.014-.069,20.914,20.914,0,0,1-.161-3.4h20.478A20.916,20.916,0,0,1,126.165,285.884Z" transform="translate(-105.837 -282.489)"/></g><path class="f" d="M115.706,200.856a.671.671,0,0,0-.4-.484,34.518,34.518,0,0,0-10.53-2.3h-.009a34.518,34.518,0,0,0-10.53,2.3.671.671,0,0,0-.4.484,15.313,15.313,0,0,0,.014,4.484.678.678,0,0,0,.786.6,60.356,60.356,0,0,1,20.27,0,.678.678,0,0,0,.786-.6A15.315,15.315,0,0,0,115.706,200.856Z" transform="translate(-87.287 -190.221)"/><path class="e" d="M115.7,200.856a.671.671,0,0,0-.4-.483,34.523,34.523,0,0,0-10.531-2.3h-.009a32.435,32.435,0,0,0-3.5.385,31.863,31.863,0,0,0-7.031,1.918.671.671,0,0,0-.4.483,12.658,12.658,0,0,0-.091,3.3c.055.005.112.008.169.008a1.976,1.976,0,0,0,.3-.022,75.7,75.7,0,0,1,10.558-.788,74.424,74.424,0,0,1,7.934.452,1,1,0,0,1,.885,1.086l-.015.156a.733.733,0,0,1-.44.617c.744.1,1.347.2,1.771.267a.678.678,0,0,0,.786-.6c.048-.45.084-.86.109-1.236h0A12.541,12.541,0,0,0,115.7,200.856Z" transform="translate(-87.284 -190.222)"/><g transform="translate(5.812 5.964)"><path class="g" d="M108.268,173.1a.648.648,0,0,0-.408-.454A40.88,40.88,0,0,0,96.706,170.5H96.7a40.88,40.88,0,0,0-11.154,2.145.648.648,0,0,0-.408.454,10.477,10.477,0,0,0,.061,3.441.656.656,0,0,0,.747.568,72.56,72.56,0,0,1,21.518,0,.656.656,0,0,0,.747-.568A10.475,10.475,0,0,0,108.268,173.1Z" transform="translate(-85.029 -170.499)"/><path class="f" d="M392.34,197.409a.656.656,0,0,1-.746.568c-.382-.057-.919-.132-1.583-.215a.832.832,0,0,0,.192-.459,14.636,14.636,0,0,0,.061-4.074.81.81,0,0,0-.147-.329c.625.182,1.254.386,1.876.614a.648.648,0,0,1,.408.453,10.471,10.471,0,0,1-.061,3.442Z" transform="translate(-369.162 -191.369)"/></g><path d="M19.513,86.888a29.551,29.551,0,0,0-4.049,0,43.305,43.305,0,0,0-9.5,1.981L4.14,84.574A2.155,2.155,0,0,0,0,85.416V97.573a4.991,4.991,0,0,0,4.986,4.986H6.142a2.837,2.837,0,0,0,1.632.519H9.088a10.476,10.476,0,0,0,8.4,3.8,11.967,11.967,0,0,0,3.293-.443.513.513,0,0,0-.282-.986,10.946,10.946,0,0,1-3.011.4,9.51,9.51,0,0,1-8.093-4.061,37.962,37.962,0,0,0,8.057,1.306h.077a37.971,37.971,0,0,0,8.053-1.306,9.634,9.634,0,0,1-2.936,2.739.513.513,0,1,0,.522.883,10.453,10.453,0,0,0,2.718-2.334h1.313a2.835,2.835,0,0,0,1.632-.519h1.188A4.991,4.991,0,0,0,35,97.573V85.416a2.155,2.155,0,0,0-4.14-.841l-1.825,4.3a43.264,43.264,0,0,0-9.523-1.99ZM1.025,97.573V85.416A1.13,1.13,0,0,1,3.2,84.975l1.815,4.281a3.117,3.117,0,0,0-1.5,1.981,12.849,12.849,0,0,0,.01,4.334,3.142,3.142,0,0,0,.435,1.243c.028.573.076,1.188.146,1.831a3.162,3.162,0,0,0,.832,1.819c.007.054.014.105.021.154l0,.012a2.806,2.806,0,0,0,.289.9H4.986A3.965,3.965,0,0,1,1.025,97.573ZM28.481,95.2a.141.141,0,0,1-.056.1.139.139,0,0,1-.107.027,77.622,77.622,0,0,0-10.834-.808c-1.76,0-3.619.074-5.523.22a.513.513,0,1,0,.078,1.022c1.879-.144,3.711-.217,5.445-.217a76.614,76.614,0,0,1,10.557.778c-.02.608-.068,1.28-.146,2a.165.165,0,0,1-.191.145,65.022,65.022,0,0,0-10.22-.864,65.018,65.018,0,0,0-10.22.864.165.165,0,0,1-.191-.145c-.078-.724-.127-1.4-.146-2,.6-.088,1.526-.213,2.68-.337a.513.513,0,0,0-.11-1.02c-1.254.135-2.241.27-2.847.361a.139.139,0,0,1-.107-.027.141.141,0,0,1-.056-.1,10.033,10.033,0,0,1-.071-3.257A.136.136,0,0,1,6.5,91.85a40.375,40.375,0,0,1,10.983-2.113A40.375,40.375,0,0,1,28.467,91.85a.136.136,0,0,1,.086.093A10.036,10.036,0,0,1,28.481,95.2Zm-11,6.872a35.486,35.486,0,0,1-9.526-1.817.065.065,0,0,1-.044-.051c-.025-.179-.058-.448-.088-.788a63.973,63.973,0,0,1,9.657-.786,63.977,63.977,0,0,1,9.657.786c-.03.339-.063.608-.088.788a.065.065,0,0,1-.044.051,35.488,35.488,0,0,1-9.526,1.817ZM15.606,87.9a26.353,26.353,0,0,1,3.752,0A41.967,41.967,0,0,1,29.143,90a2.1,2.1,0,0,1,1.32,1.475,4.8,4.8,0,0,1,.1.617.513.513,0,0,0,1.02-.109,5.836,5.836,0,0,0-.126-.751,3.117,3.117,0,0,0-1.476-1.967l1.821-4.3a1.13,1.13,0,0,1,2.171.441V97.573a3.965,3.965,0,0,1-3.96,3.96h-.289a2.817,2.817,0,0,0,.291-.907l0-.013q.01-.07.02-.15a3.163,3.163,0,0,0,.832-1.82c.069-.643.118-1.258.146-1.831a3.142,3.142,0,0,0,.435-1.243c.045-.358.082-.7.11-1.028a.513.513,0,1,0-1.021-.09c-.027.312-.063.645-.107.991a2.082,2.082,0,0,1-.347.921A.513.513,0,0,0,30,96.63c-.025.59-.075,1.23-.147,1.9a2.134,2.134,0,0,1-.653,1.32.513.513,0,0,0-.157.312c-.014.115-.027.217-.04.311v.01a1.829,1.829,0,0,1-1.8,1.565h-.553c.165-.25.309-.489.434-.712,0-.008.008-.016.012-.024l.271-.1a1.087,1.087,0,0,0,.711-.876c.029-.208.068-.529.1-.933a1.183,1.183,0,0,0,.279-.156,1.2,1.2,0,0,0,.465-.821c.092-.854.145-1.641.158-2.343a1.159,1.159,0,0,0,.426-.764,11.363,11.363,0,0,0,.05-3.626,1.158,1.158,0,0,0-.73-.814,41.532,41.532,0,0,0-11.311-2.175H17.5a.517.517,0,0,0-.057,0A41.524,41.524,0,0,0,6.149,90.887a1.157,1.157,0,0,0-.73.814,11.362,11.362,0,0,0,.05,3.626,1.159,1.159,0,0,0,.426.764c.014.7.067,1.49.158,2.343a1.184,1.184,0,0,0,.744.978c.034.405.073.725.1.933a1.088,1.088,0,0,0,.711.876l.269.1c.129.232.278.479.448.737H7.774a1.829,1.829,0,0,1-1.8-1.565v-.014c-.012-.089-.026-.191-.039-.306a.513.513,0,0,0-.157-.312,2.134,2.134,0,0,1-.653-1.32c-.072-.674-.122-1.314-.147-1.9a.513.513,0,0,0-.088-.266,2.082,2.082,0,0,1-.347-.921,11.969,11.969,0,0,1-.031-3.965A2.1,2.1,0,0,1,5.826,90a41.862,41.862,0,0,1,9.78-2.1Z" transform="translate(0 -83.26)"/></svg>