<svg xmlns="http://www.w3.org/2000/svg" width="26.294" height="35" viewBox="0 0 26.294 35"><defs><style>.a{fill:#eff6ff;}.b{fill:#d9eefe;}.c{fill:#b5e245;}.d{fill:#ddecff;}.e{fill:#c1e4ff;}</style></defs><g transform="translate(-63.677 0)"><g transform="translate(64.19 0.513)"><g transform="translate(0)"><path class="a" d="M93.739,53.915H73.883l-2.535,6.763a2.691,2.691,0,0,0-.171.945V83.131a1.586,1.586,0,0,0,1.586,1.586h22.1a1.586,1.586,0,0,0,1.586-1.586V61.623a2.69,2.69,0,0,0-.171-.945Z" transform="translate(-71.177 -50.742)"/><path class="b" d="M353.852,166.669v21.508a1.586,1.586,0,0,1-1.586,1.586h4.468a1.586,1.586,0,0,0,1.586-1.586V166.669Z" transform="translate(-333.051 -155.788)"/><path class="c" d="M93.739,53.915H73.883l-2.535,6.763a2.691,2.691,0,0,0-.171.945H96.446a2.69,2.69,0,0,0-.171-.945Z" transform="translate(-71.177 -50.742)"/><path class="a" d="M110.768,10.673V8.214a.714.714,0,0,1,.714-.714H129.91a.714.714,0,0,1,.714.714v2.459Z" transform="translate(-108.062 -7.5)"/><path class="b" d="M329.9,7.5h-4.468a.714.714,0,0,1,.714.714v2.459h4.468V8.214A.714.714,0,0,0,329.9,7.5Z" transform="translate(-308.051 -7.5)"/></g><path class="d" d="M93.739,53.915H73.883l-2.535,6.763a2.691,2.691,0,0,0-.171.945H96.446a2.69,2.69,0,0,0-.171-.945Z" transform="translate(-71.177 -50.742)"/><g transform="translate(18.095 3.173)"><path class="e" d="M342.88,60.678l-2.535-6.763h-4.468l2.535,6.763a2.691,2.691,0,0,1,.171.945h4.468A2.689,2.689,0,0,0,342.88,60.678Z" transform="translate(-335.877 -53.915)"/></g></g><g transform="translate(63.677 0)"><path d="M89.458,29.819a.513.513,0,0,0,.513-.513V11.393a3.193,3.193,0,0,0-.2-1.125l-2.5-6.676V1.227A1.228,1.228,0,0,0,86.038,0H67.61a1.228,1.228,0,0,0-1.227,1.227V3.593l-2.5,6.676a3.192,3.192,0,0,0-.2,1.125V32.9a2.1,2.1,0,0,0,2.1,2.1h22.1a2.1,2.1,0,0,0,2.1-2.1V31.7a.513.513,0,1,0-1.025,0v1.2a1.075,1.075,0,0,1-1.073,1.073h-22.1A1.075,1.075,0,0,1,64.7,32.9v-21H88.946v17.4A.513.513,0,0,0,89.458,29.819ZM67.251,4.2h1.8a.513.513,0,0,0,0-1.025H67.409V1.227a.2.2,0,0,1,.2-.2H86.038a.2.2,0,0,1,.2.2V3.173H71.446a.513.513,0,0,0,0,1.025H86.4l2.41,6.43a2.168,2.168,0,0,1,.077.252H64.764a2.19,2.19,0,0,1,.077-.252Z" transform="translate(-63.677 0)"/></g></g></svg>