<svg xmlns="http://www.w3.org/2000/svg" width="42.381" height="35" viewBox="0 0 42.381 35"><defs><style>.a{fill:#eff6ff;}.a,.b,.c,.d{fill-rule:evenodd;}.b{fill:#a1d4ff;}.c{fill:#86beec;}.d{fill:#d9eeff;}</style></defs><g transform="translate(0 -44.584)"><g transform="translate(18.93 49.214)"><path class="a" d="M231.55,124.408c.376-3.664-1.719-8.125-2.2-8.983-1.967-3.492.965-5.081,2.378-2.857l1.511,2.382,2.937-13.211c.39-1.756,2.93-1.687,2.5,1.089l-1.236,8.015a.582.582,0,0,0,1.137.245l3.283-9.453c.672-1.931,2.958-1.174,2.412.761l-2.54,9c-.22.777.812,1.385,1.231.383l3.072-7.35c.848-2.024,3.318-1.19,2.439,1.036l-2.951,7.465c-.5,1.272.193,1.726.919.633l2.7-4.065c.974-1.465,3.113-.241,2.112,1.509l-8.02,14.018-.64,2.362-6.75-.064A21.443,21.443,0,0,1,231.55,124.408Z" transform="translate(-228.688 -100.513)"/></g><g transform="translate(0.623 45.205)"><path class="a" d="M23.126,78.226c.594-3.636,3.781-7.4,4.468-8.1,2.811-2.857.394-5.156-1.55-3.377l-2.079,1.905.61-13.52c.083-1.8-2.389-2.394-2.7.4l-.9,8.059a.582.582,0,0,1-1.162-.06l-.706-9.982c-.142-2.038-2.547-1.9-2.524.105L16.693,63c.009.809-1.144,1.128-1.288.05l-1.05-7.9c-.289-2.176-2.891-2.013-2.623.365l.9,7.976c.154,1.36-.637,1.616-1.052.371L10.033,59.24c-.559-1.669-2.944-1.045-2.433.906L11.688,75.77v2.446L17.34,80.1C18.144,79.757,22.438,78.629,23.126,78.226Z" transform="translate(-7.529 -52.086)"/></g><g transform="translate(3.423 71.336)"><path class="b" d="M53.864,367.77h-11a1.509,1.509,0,1,0,0,3.017h11a1.509,1.509,0,1,0,0-3.017Z" transform="translate(-41.351 -367.77)"/></g><g transform="translate(13.662 71.336)"><path class="c" d="M168.828,369.279a1.513,1.513,0,0,0-1.509-1.509h-2.274a1.509,1.509,0,1,1,0,3.017h2.274A1.513,1.513,0,0,0,168.828,369.279Z" transform="translate(-165.045 -367.77)"/></g><g transform="translate(19.993 73.079)"><path class="b" d="M248.788,390.315l-5.358-1.444-.032-.009h-.007l-.011,0,0,0h0l-.009,0h-.012l0,0h0l-.016,0h0l0,0v0a1.509,1.509,0,0,0-.683,2.937l10.626,2.868a1.509,1.509,0,0,0,.853-2.893l-.1-.027-1.272-.344Z" transform="translate(-241.528 -388.818)"/></g><g transform="translate(29.703 75.82)"><path class="c" d="M363.108,424.46a1.56,1.56,0,0,0-1.027-1.887l-.1-.028-1.313-.355-.951-.255a1.56,1.56,0,0,1,1.026,1.887,1.606,1.606,0,0,1-1.906,1.1l2.365.641A1.561,1.561,0,0,0,363.108,424.46Z" transform="translate(-358.836 -421.934)"/></g><g transform="translate(14.549 59.244)"><path class="d" d="M180.885,222.057c.653.454.8,1.4.023,2.662a6.469,6.469,0,0,1-.887,1.1c-.832.887-3.632,4.512-4.255,7.963H177.3a.875.875,0,0,1,.135.009c.431-2.646,2.522-6.053,4.377-8,.034-.037.064-.069.092-.1,2.107-2.144,1.275-3.971-.092-4a1.885,1.885,0,0,0-1.036.3C180.813,222.011,180.85,222.034,180.885,222.057Z" transform="translate(-175.765 -221.685)"/></g><g transform="translate(15.801 46.733)"><path class="d" d="M190.888,85.128c0,.984,1.029,1,1.259.456l.61-13.52a1.356,1.356,0,0,0-1.185-1.52C191.385,70.535,190.9,84,190.888,85.128Z" transform="translate(-190.888 -70.544)"/></g><g transform="translate(10.846 45.205)"><path class="d" d="M131.8,63.658c.071,1.062,1.334,1.318,1.334.062l-.234-3.008-.507-7.165c-.073-1.039-.734-1.513-1.36-1.463Z" transform="translate(-131.035 -52.081)"/></g><g transform="translate(6.146 46.749)"><path class="d" d="M75.459,80.292c.177,1.4,1.3,1,1.135-.232l-.431-3.249-.605-4.546a1.577,1.577,0,0,0-1.3-1.527Z" transform="translate(-74.255 -70.738)"/></g><g transform="translate(0.841 51.058)"><path class="d" d="M12.361,129.123c.364,1.041,1.514.617,1.154-.457l-1-2.973-.639-1.909a1.319,1.319,0,0,0-1.715-.918Z" transform="translate(-10.166 -122.791)"/></g><g transform="translate(31.217 57.786)"><path class="d" d="M377.76,219.575l-.637,2.362,1.458.394.16.044.64-2.362,7.346-12.837L387.4,206a1.392,1.392,0,0,0-.254-1.919Z" transform="translate(-377.123 -204.076)"/></g><g transform="translate(34.348 51.801)"><path class="d" d="M415.152,141.134c-.584,1.284.2,1.781.948.653l1.587-2.389,2.181-5.513c.416-1.057.1-1.812-.447-2.112Z" transform="translate(-414.948 -131.773)"/></g><g transform="translate(30.955 49.324)"><path class="d" d="M374.98,112.613l.857-3.038,1.683-5.959a1.416,1.416,0,0,0-.612-1.775l-2.737,9.4a2.156,2.156,0,0,0,.22,2.212.988.988,0,0,0,1.566-.085c-.477.417-1.16-.112-.977-.759Z" transform="translate(-373.964 -101.842)"/></g><g transform="translate(26.322 49.28)"><path class="d" d="M317.989,111.644a1.252,1.252,0,0,0,2.465.321c.007-.018.05-.149.03-.14a.582.582,0,0,1-1.137-.245l.03-.193.41-2.657.8-5.165c.218-1.4-.323-2.114-.963-2.249C319.55,101.3,318.122,110.965,317.989,111.644Z" transform="translate(-317.988 -101.315)"/></g><g transform="translate(0 44.584)"><path d="M301.1,315.723l-5.246-2.958a.621.621,0,1,0-.61,1.081l5.246,2.958a.621.621,0,0,0,.61-1.081Z" transform="translate(-270.511 -290.493)"/><path d="M329.64,286.868l-2.957-1.919a.621.621,0,1,0-.676,1.041l2.958,1.919a.621.621,0,1,0,.676-1.041Z" transform="translate(-298.762 -264.961)"/><path d="M94.662,286.7l-5.835,1.488a.621.621,0,1,0,.307,1.2l5.835-1.488a.621.621,0,0,0-.307-1.2Z" transform="translate(-81.046 -266.637)"/><path d="M96.458,254.1a.619.619,0,0,0,.191-.03L100,252.987a.621.621,0,0,0-.381-1.182l-3.356,1.082a.621.621,0,0,0,.19,1.212Z" transform="translate(-87.904 -234.625)"/><path d="M34.053,73.962l7.98-13.948a1.981,1.981,0,0,0-.546-2.808,1.89,1.89,0,0,0-2.621.648l-2.129,3.205a.038.038,0,0,1-.067-.035l2.621-6.632c.594-1.506-.046-2.562-.893-2.906a2.124,2.124,0,0,0-2.7,1.4l-3.072,7.35c-.022.052-.062.03-.051-.01l2.53-8.961a1.9,1.9,0,1,0-3.6-1.133L28.451,58.95a.026.026,0,0,1-.05-.013l1.127-7.313c.278-1.8-.546-2.781-1.485-2.958a1.987,1.987,0,0,0-2.235,1.64L23.2,62.05h0l-.622-.98h0a2.216,2.216,0,0,0-.566-1.846,2.3,2.3,0,0,0-3.289.187l-.787.721a.1.1,0,0,1-.174-.081l.531-11.768a1.986,1.986,0,0,0-1.73-2.166c-.953-.075-2.005.66-2.206,2.47l-.805,7.241a.037.037,0,0,1-.073,0l-.651-9.2a1.98,1.98,0,0,0-1.959-2.042,1.988,1.988,0,0,0-1.805,2.2l.1,9.3c0,.042-.045.061-.052.005l-1.05-7.9a2.122,2.122,0,0,0-2.235-2.057c-.907.111-1.8.964-1.619,2.573l.8,7.055a.041.041,0,0,1-.08.018l-1.21-3.62a1.891,1.891,0,0,0-2.362-1.309A1.981,1.981,0,0,0,.094,53.422L4.162,68.97v1.89a2.129,2.129,0,0,0,.77,4.114H9.1a.621.621,0,1,0,0-1.241H4.931a.888.888,0,0,1,0-1.776h11a.888.888,0,0,1,0,1.776H11.942a.621.621,0,1,0,0,1.241h3.994a2.129,2.129,0,0,0,.992-4.012A16.059,16.059,0,0,1,19.6,65.567h0a17.514,17.514,0,0,1,1.612,6.91,2.129,2.129,0,0,0-.264,4.165l3.632.981a.621.621,0,0,0,.324-1.2l-3.632-.981a.89.89,0,0,1-.626-1.09.89.89,0,0,1,1.019-.639c.023.005.047.009.07.015l3.218.868,7.435,2.007a.891.891,0,0,1,.6,1.08.892.892,0,0,1-1.087.626l-4.409-1.19a.621.621,0,1,0-.323,1.2l4.409,1.19a2.128,2.128,0,0,0,1.965-3.648ZM15.711,70.716H5.4V68.89a.621.621,0,0,0-.02-.157L1.295,53.108c-.169-.644.1-.972.413-1.065a.661.661,0,0,1,.83.513l1.547,4.629c.439,1.318,1.208,1.259,1.434,1.209.487-.108.96-.649.824-1.846l-.9-7.976c-.087-.774.207-1.161.537-1.2.354-.044.76.282.854.988l1.05,7.9A1.255,1.255,0,0,0,9.2,57.481a1.332,1.332,0,0,0,1.209-1.364L10.3,46.77c-.007-.634.3-.931.614-.943.279-.012.623.214.67.889l.706,9.982a1.2,1.2,0,0,0,2.4.059l.894-8.033c.109-.985.516-1.4.875-1.37.3.024.611.337.586.872l-.609,13.5a.632.632,0,0,0,.191.494.622.622,0,0,0,.848.007l2.079-1.905c.653-.6,1.265-.544,1.558-.241.432.448.344,1.491-.87,2.725-.038.038-3.625,3.844-4.535,7.9Zm17.225,2.7a.619.619,0,0,0-.06.146L32.4,75.322l-6.074-1.638-3.877-1.047h0a19.3,19.3,0,0,0-2-8.182v0c.288-.352.527-.618.678-.772a6.269,6.269,0,0,0,.9-1.142h0l.917,1.445a.621.621,0,0,0,1.13-.2l2.937-13.211c.116-.522.5-.745.794-.689.352.066.639.57.488,1.549L27.07,59.424a1.184,1.184,0,0,0,.835,1.384,1.2,1.2,0,0,0,1.5-.814l3.283-9.453c.222-.639.614-.768.882-.683.3.093.519.461.347,1.072l-2.54,9a1.33,1.33,0,0,0,.811,1.63,1.269,1.269,0,0,0,1.59-.839l3.072-7.35c.275-.658.754-.866,1.084-.732.308.125.491.576.206,1.3L35.185,61.4c-.442,1.12-.128,1.766.314,2,.2.107.93.365,1.7-.793l2.7-4.065a.661.661,0,0,1,.935-.279c.276.17.452.558.121,1.136Z" transform="translate(0 -44.584)"/></g></g></svg>