<svg xmlns="http://www.w3.org/2000/svg" width="35.808" height="35.889" viewBox="0 0 35.808 35.889"><defs><style>.a{fill:#e5e1e5;}.b{fill:#efedef;}.c{fill:#99e6fc;}.d{fill:#c8effe;}.e{fill:#ffdfcf;}.f{fill:#ffcebf;}.g{fill:#ffeee6;}</style></defs><g transform="translate(0.525 0.525)"><g transform="translate(5.306 1.401)"><path class="a" d="M83.82,27.5h2.117v5.242H83.82Z" transform="translate(-83.82 -27.5)"/></g><path class="b" d="M67.752,89.968H62.673v-3.5a1.137,1.137,0,0,1,1.137-1.137h2.805a1.137,1.137,0,0,1,1.137,1.137v3.5Z" transform="translate(-58.848 -79.88)"/><path class="c" d="M228.141,109.366a2.787,2.787,0,1,1-5.575,0c0-1.186,1.653-3.539,2.413-4.558a.467.467,0,0,1,.748,0C226.487,105.827,228.141,108.181,228.141,109.366Z" transform="translate(-207.54 -97.817)"/><path class="d" d="M20.806,160.217a2.088,2.088,0,0,1-2.088,2.088H10.166a2.088,2.088,0,0,1-2.088-2.088V141.869a4.07,4.07,0,0,1,1.146-2.831l2.3-2.373a.527.527,0,0,1,.378-.16h5.083a.527.527,0,0,1,.378.16l2.3,2.373a4.07,4.07,0,0,1,1.146,2.831Z" transform="translate(-8.078 -127.467)"/><path class="c" d="M12.269,160.4V142.052a4.07,4.07,0,0,1,1.146-2.831l1.4-1.445a3.577,3.577,0,0,1,2.57-1.089l-.022-.023a.527.527,0,0,0-.378-.16H11.9a.527.527,0,0,0-.378.16l-2.3,2.373a4.07,4.07,0,0,0-1.146,2.831v18.348a2.088,2.088,0,0,0,2.088,2.088H13.5a2.088,2.088,0,0,1-1.234-1.905Z" transform="translate(-8.078 -127.467)"/><path class="e" d="M184.211,255.6a1.492,1.492,0,0,0-2.109,2.109l4.932,4.944,2.483-1.736Z" transform="translate(-169.505 -237.815)"/><path class="f" d="M183.13,257.267a1.492,1.492,0,0,1-.2-1.868,1.492,1.492,0,0,0-.834,2.529l4.932,4.944.994-.7Z" transform="translate(-169.505 -238.033)"/><g transform="translate(1.327)"><path class="e" d="M137.645,268.378a1.445,1.445,0,0,0-2.044,2.044l5.09,5.09,3.126,2.91,1.568-2.384Z" transform="translate(-127.601 -249.709)"/><path class="f" d="M141.96,274.868l-5.09-5.09a1.447,1.447,0,0,1-.182-1.821,1.445,1.445,0,0,0-1.086,2.466l5.09,5.09,3.126,2.91.744-1.132Z" transform="translate(-127.602 -249.71)"/><g transform="translate(4.25 19.226)"><path class="g" d="M99.123,288.524a1.889,1.889,0,0,1,0-3.779h4.658a.588.588,0,0,0,.518-.315,3.983,3.983,0,0,1,7.381.888l4.815,4.815a.689.689,0,0,1,.1.841L113.1,296.8a.689.689,0,0,1-1.078.133l-3.631-3.631a.648.648,0,0,0-.458-.19H97.68a2.751,2.751,0,0,1-1.953-.813l-7.564-7.622a1.6,1.6,0,0,1,2.263-2.263l6.107,6.108Z" transform="translate(-87.695 -281.947)"/><g transform="translate(0 0.081)"><path class="e" d="M113.109,296.275l-3.631-3.631a.648.648,0,0,0-.458-.19H98.763a2.751,2.751,0,0,1-1.953-.813l-7.564-7.623a1.6,1.6,0,0,1-.453-.92,1.6,1.6,0,0,0-.629,2.651l7.564,7.622a2.751,2.751,0,0,0,1.953.813h10.256a.648.648,0,0,1,.458.19l3.631,3.631a.689.689,0,0,0,1.078-.133l.935-1.559A.689.689,0,0,1,113.109,296.275Z" transform="translate(-87.696 -283.098)"/></g></g><path class="b" d="M41.321,12.583H39.84a.556.556,0,0,1-.556-.556v-1.7a.232.232,0,0,0-.232-.232H27.637a.613.613,0,0,1-.613-.613V8.113a.613.613,0,0,1,.613-.613H39.052a2.824,2.824,0,0,1,2.824,2.824v1.7a.556.556,0,0,1-.556.556Z" transform="translate(-27.024 -7.5)"/><path class="d" d="M273.969,178.462a2.038,2.038,0,0,1-4.076,0c0-.912,1.339-2.771,1.846-3.442a.24.24,0,0,1,.383,0c.507.671,1.846,2.53,1.846,3.442Z" transform="translate(-252.879 -163.196)"/></g></g><g transform="translate(0 0)"><path d="M144.466,358.961a.525.525,0,0,0-.372-.154H133.57a2.241,2.241,0,0,1-1.58-.658l-4.8-4.841a.525.525,0,0,0-.746.74l4.8,4.841a3.3,3.3,0,0,0,2.326.969h10.307l4.291,4.291a.525.525,0,0,0,.743-.743Z" transform="translate(-117.482 -328.413)"/><path d="M110.284,258.261l-5.1-5.1a4.508,4.508,0,0,0-8.316-.861.062.062,0,0,1-.054.035h-2.5l-4.084-4.084a2.014,2.014,0,0,0-3.36.859,1.968,1.968,0,0,0-3.257.858,2.125,2.125,0,0,0-2.787,3.2l1.18,1.189a.525.525,0,1,0,.746-.74l-1.181-1.19a1.075,1.075,0,1,1,1.52-1.52l6.108,6.107a.525.525,0,0,0,.371.154h7.987a.525.525,0,0,0,0-1.051h-5.4a1.364,1.364,0,0,1,0-2.727h4.658a1.11,1.11,0,0,0,.982-.594,3.457,3.457,0,0,1,6.407.769.526.526,0,0,0,.138.243l5.2,5.2a.526.526,0,1,0,.743-.743ZM89.79,256.118l-4.936-4.936a.92.92,0,0,1,1.3-1.3l3.829,3.829a2.41,2.41,0,0,0,.186,2.407Zm.85-3.237-2.516-2.516A.966.966,0,1,1,89.49,249l3.341,3.341h-.67A2.4,2.4,0,0,0,90.64,252.88Z" transform="translate(-74.63 -230.315)"/><path d="M13.832,261.377a.525.525,0,0,0-.525.525v1.172a1.565,1.565,0,0,1-1.563,1.563H3.192a1.565,1.565,0,0,1-1.563-1.563V247.634a.525.525,0,1,0-1.051,0v15.439a2.617,2.617,0,0,0,2.614,2.614h8.552a2.617,2.617,0,0,0,2.614-2.614V261.9A.525.525,0,0,0,13.832,261.377Z" transform="translate(-0.578 -229.798)"/><path d="M1.1,16.123a.525.525,0,0,0,.525-.525v-.67a3.527,3.527,0,0,1,1-2.466l2.3-2.373H10.01l2.3,2.373a3.527,3.527,0,0,1,1,2.466v.966a.525.525,0,1,0,1.051,0v-.966a4.572,4.572,0,0,0-1.294-3.2L10.61,9.2a.523.523,0,0,0-.077-.065V7.115A1.665,1.665,0,0,0,9.051,5.462V3.643h5.114V5.053a1.082,1.082,0,0,0,1.081,1.081h1.481a1.082,1.082,0,0,0,1.081-1.081v-1.7A3.353,3.353,0,0,0,14.459,0H7.167a.525.525,0,1,0,0,1.051h7.292a2.3,2.3,0,0,1,2.3,2.3v1.7a.03.03,0,0,1-.03.03H15.246a.03.03,0,0,1-.03-.03v-1.7a.758.758,0,0,0-.757-.757H3.043A.087.087,0,0,1,2.956,2.5V1.138a.087.087,0,0,1,.087-.087H4.928A.525.525,0,1,0,4.928,0H3.043A1.139,1.139,0,0,0,1.905,1.138V2.5A1.139,1.139,0,0,0,3.043,3.643H5.884v1.82A1.665,1.665,0,0,0,4.4,7.115V9.132a.527.527,0,0,0-.077.065L1.872,11.73a4.572,4.572,0,0,0-1.294,3.2v.67a.525.525,0,0,0,.525.525ZM8,3.643v1.81H6.935V3.643ZM6.065,6.5H8.87a.612.612,0,0,1,.612.612V9.037H5.453V7.115A.612.612,0,0,1,6.065,6.5Z" transform="translate(-0.578 0)"/><path d="M215.1,100.016c-1.432,2.032-2.158,3.531-2.158,4.456a3.5,3.5,0,0,0,1.809,3.061.525.525,0,0,0,.508-.92,2.446,2.446,0,0,1-1.265-2.141c0-.319.191-1.333,1.966-3.851a.584.584,0,0,1,.954,0,20.814,20.814,0,0,1,1.388,2.217.525.525,0,0,0,.93-.488,21.556,21.556,0,0,0-1.46-2.334,1.634,1.634,0,0,0-2.672,0Z" transform="translate(-198.065 -92.365)"/><path d="M264.261,168.736c-1.544,2.071-1.869,3.127-1.869,3.647a2.563,2.563,0,0,0,5.127,0c0-.52-.324-1.576-1.869-3.647a.867.867,0,0,0-1.39,0Zm2.207,3.647a1.513,1.513,0,0,1-3.025,0,7.434,7.434,0,0,1,1.513-2.819A7.437,7.437,0,0,1,266.468,172.383Z" transform="translate(-244.051 -156.591)"/></g></svg>