<svg xmlns="http://www.w3.org/2000/svg" width="24.161" height="35" viewBox="0 0 24.161 35"><defs><style>.a{fill:#f6a96c;}.b{fill:#d9e7ec;}.c{fill:#b6c4cf;}.d{fill:#f5f8f9;}.e{fill:#596c76;}.f{fill:#465a61;}.g{fill:#fed2a4;}.h{fill:#ffbd86;}</style></defs><g transform="translate(-79.398 0)"><g transform="translate(79.91 23.026)"><path class="a" d="M110.034,348.814a9.093,9.093,0,0,0-3.23-6.458,15.11,15.11,0,0,0-5.223-2.857c-.14-.042-.282-.072-.424-.1-1.086-.24-.906-2.043-.906-2.043H96.68s.179,1.8-.906,2.043c-.142.031-.285.061-.424.1a15.111,15.111,0,0,0-5.223,2.857,9.093,9.093,0,0,0-3.23,6.458Z" transform="translate(-86.896 -337.352)"/></g><g transform="translate(79.91 24.923)"><path class="b" d="M100.824,365.145a.922.922,0,0,0,.354.15c.136.027.27.059.4.1a15.1,15.1,0,0,1,5.225,2.858,9.092,9.092,0,0,1,3.23,6.458H86.9a9.092,9.092,0,0,1,3.23-6.458,15.1,15.1,0,0,1,5.225-2.858c.133-.04.267-.071.4-.1a.925.925,0,0,0,.354-.15l1.86,3.669a.556.556,0,0,0,.992,0Z" transform="translate(-86.899 -365.145)"/></g><g transform="translate(93.382 24.923)"><path class="c" d="M293.939,374.708h-1.323a9.137,9.137,0,0,0-3.177-5.832,15.1,15.1,0,0,0-5.166-2.839l.453-.894a.916.916,0,0,0,.352.15c.137.028.272.059.406.1a15.1,15.1,0,0,1,5.225,2.858A9.089,9.089,0,0,1,293.939,374.708Z" transform="translate(-284.273 -365.143)"/></g><g transform="translate(84.962 30.225)"><path class="d" d="M164.949,444.76H161.2a.289.289,0,0,1-.289-.289v-1.363a.289.289,0,0,1,.289-.289h3.747a.289.289,0,0,1,.289.289v1.363A.289.289,0,0,1,164.949,444.76Z" transform="translate(-160.913 -442.82)"/></g><g transform="translate(87.628 30.225)"><path class="b" d="M201.622,443.112v1.363a.289.289,0,0,1-.289.289h-1.371a.289.289,0,0,0,.289-.289v-1.363a.288.288,0,0,0-.289-.289h1.371A.289.289,0,0,1,201.622,443.112Z" transform="translate(-199.963 -442.823)"/></g><g transform="translate(80.025 2.55)"><path class="e" d="M107.761,41.477a11.424,11.424,0,0,0-3.567-3.086,8.94,8.94,0,0,0-8.329,0A11.284,11.284,0,0,0,92.3,41.477c-2.142,2.726-4.714,7.537-3.334,11.083.906,2.327,3.278,3.773,5.478,4.647a7.377,7.377,0,0,1,.839.312c0-.006,9.5-.006,9.5,0a7.364,7.364,0,0,1,.839-.312c2.2-.874,4.572-2.32,5.478-4.647C112.476,49.013,109.9,44.2,107.761,41.477Z" transform="translate(-88.575 -37.362)"/></g><g transform="translate(90.67 2.551)"><path class="f" d="M256.416,52.568c-.906,2.327-3.277,3.772-5.477,4.647a7.431,7.431,0,0,0-.839.312s-.6,0-1.5,0a8.517,8.517,0,0,1,.837-.309c2.2-.874,4.572-2.32,5.478-4.647,1.38-3.547-1.192-8.357-3.334-11.083a11.418,11.418,0,0,0-3.566-3.085,9.381,9.381,0,0,0-3.476-1,9.247,9.247,0,0,1,4.973,1,11.413,11.413,0,0,1,3.567,3.085c2.143,2.726,4.714,7.537,3.334,11.083Z" transform="translate(-244.542 -37.371)"/></g><g transform="translate(82.035 14.613)"><g transform="translate(0)"><path class="a" d="M120.153,217.688h-.329a1.8,1.8,0,1,1,0-3.59h.329Z" transform="translate(-118.029 -214.098)"/></g><g transform="translate(16.764)"><path class="a" d="M363.64,217.688h.329a1.8,1.8,0,1,0,0-3.59h-.329Z" transform="translate(-363.64 -214.098)"/></g></g><g transform="translate(84.008 10.215)"><path class="g" d="M161.062,149.661l.807,2.8v3.863a7.543,7.543,0,0,1-.038.754,7.472,7.472,0,0,1-14.868,0,7.543,7.543,0,0,1-.038-.754v-3.863l.716-2.8Z" transform="translate(-146.926 -149.661)"/></g><g transform="translate(90.797 10.215)"><path class="h" d="M253.739,149.656l.807,3.057v3.6a7.472,7.472,0,0,1-7.472,7.471c-.23,0-.458-.01-.683-.031a7.472,7.472,0,0,0,6.789-7.44v-6.66Z" transform="translate(-246.392 -149.656)"/></g><g transform="translate(84.008 15.529)"><path class="d" d="M161.869,227.509v1.346a7.543,7.543,0,0,1-.038.754,7.472,7.472,0,0,1-14.868,0,7.543,7.543,0,0,1-.038-.754v-1.346s1.544,2.352,5.6,2.995a11.973,11.973,0,0,0,3.746,0C160.325,229.861,161.869,227.509,161.869,227.509Z" transform="translate(-146.926 -227.509)"/></g><g transform="translate(90.797 15.528)"><path class="b" d="M254.547,227.506v1.347a7.472,7.472,0,0,1-7.472,7.471c-.171,0-.343-.008-.513-.018-.057,0-.113-.008-.169-.014a7.471,7.471,0,0,0,6.789-7.44v-.027a5.8,5.8,0,0,0,1.365-1.32Z" transform="translate(-246.393 -227.506)"/></g><g transform="translate(85.007 0.512)"><path class="b" d="M173.019,7.5h-9.951a1.5,1.5,0,0,0-1.481,1.711,10.766,10.766,0,0,0,.949,3.189,2.742,2.742,0,0,0,2.457,1.515h6.1A2.742,2.742,0,0,0,173.55,12.4a10.765,10.765,0,0,0,.949-3.189A1.5,1.5,0,0,0,173.019,7.5Z" transform="translate(-161.571 -7.5)"/></g><g transform="translate(93.13 0.512)"><path class="c" d="M285.379,9.213a10.783,10.783,0,0,1-.949,3.19,2.742,2.742,0,0,1-2.456,1.515h-1.4a2.741,2.741,0,0,0,2.456-1.515,10.741,10.741,0,0,0,.949-3.19A1.5,1.5,0,0,0,282.5,7.5h1.4A1.5,1.5,0,0,1,285.379,9.213Z" transform="translate(-280.573 -7.503)"/></g><g transform="translate(84.007 8.326)"><path class="e" d="M146.925,126.871c.945-.149,2.918-.836,4.2-3.922,0,0,2.633,4.7,10.74,4.016v-4.494l-14.926-.494Z" transform="translate(-146.925 -121.978)"/></g><g transform="translate(79.398 0)"><path d="M157.96,435.32h-3.747a.8.8,0,0,0-.8.8v1.363a.8.8,0,0,0,.8.8h3.747a.8.8,0,0,0,.8-.8v-1.363A.8.8,0,0,0,157.96,435.32Zm-.223,1.94h-3.3v-.917h3.3Z" transform="translate(-148.361 -405.607)"/><g transform="translate(0 0)"><path d="M204.662,219.445a.512.512,0,0,0-.512.512v.918a.512.512,0,1,0,1.024,0v-.918A.512.512,0,0,0,204.662,219.445Z" transform="translate(-195.635 -204.467)"/><path d="M294.148,219.445a.512.512,0,0,0-.512.512v.918a.512.512,0,1,0,1.024,0v-.918A.512.512,0,0,0,294.148,219.445Z" transform="translate(-279.013 -204.467)"/><path d="M103.22,32.4c-.008-.028-.015-.055-.023-.083a9.784,9.784,0,0,0-3.046-4.674c-.341-.29-.685-.556-1.027-.8q-.573-.405-1.181-.756a14.394,14.394,0,0,0-3.238-1.413,1.505,1.505,0,0,1-.645-.239A7.909,7.909,0,0,0,96.349,23.2c.062-.015.873-.319.907-.332,3.017-1.2,4.957-2.86,5.766-4.937a8.7,8.7,0,0,0-.343-6.213,20.815,20.815,0,0,0-3.065-5.372,13.728,13.728,0,0,0-1.707-1.814A12.158,12.158,0,0,0,98.442,2.3,2.007,2.007,0,0,0,96.455,0H86.5a2.008,2.008,0,0,0-1.987,2.3,12.161,12.161,0,0,0,.536,2.238,13.13,13.13,0,0,0-1.707,1.814,20.812,20.812,0,0,0-3.065,5.372,8.7,8.7,0,0,0-.343,6.213c.809,2.077,2.748,3.738,5.766,4.937.034.013.847.317.909.332a7.961,7.961,0,0,0,2.293,1.23,1.226,1.226,0,0,1-.6.227,15.363,15.363,0,0,0-5.5,2.98,9.842,9.842,0,0,0-2.651,3.579,9.35,9.35,0,0,0-.72,2.738l0,.021v.013q-.024.235-.035.472A.512.512,0,0,0,79.91,35h23.138a.512.512,0,0,0,.511-.536,9.2,9.2,0,0,0-.34-2.066ZM80.891,17.563a7.73,7.73,0,0,1,.349-5.485,19.839,19.839,0,0,1,2.911-5.1,12.446,12.446,0,0,1,1.315-1.444c.016.034.032.07.049.1a3.234,3.234,0,0,0,2.915,1.8h.285a.512.512,0,1,0,0-1.024h-.285a2.216,2.216,0,0,1-2-1.231,10.231,10.231,0,0,1-.9-3.035A.984.984,0,0,1,86.5,1.024h9.951a.984.984,0,0,1,.974,1.125,10.23,10.23,0,0,1-.9,3.035,2.215,2.215,0,0,1-2,1.231H91.123a.512.512,0,1,0,0,1.024h3.406a3.233,3.233,0,0,0,2.915-1.8c.016-.033.031-.067.047-.1a12.91,12.91,0,0,1,1.317,1.441,19.838,19.838,0,0,1,2.911,5.1,7.73,7.73,0,0,1,.349,5.485A7.6,7.6,0,0,1,98.057,21.4a8.011,8.011,0,0,0,1.192-2.685,2.307,2.307,0,0,0,.214-4.586V13.32a.52.52,0,0,0-.059-.248.525.525,0,0,0-.4-.266.457.457,0,0,0-.1,0,12.585,12.585,0,0,1-8.034-1.636,7.079,7.079,0,0,1-2.216-2.12.512.512,0,0,0-.919.053c-1.169,2.806-2.889,3.468-3.81,3.613a.54.54,0,0,0-.426.585v0s0,.346,0,.824a2.307,2.307,0,0,0,.208,4.587A7.947,7.947,0,0,0,84.9,21.394a7.6,7.6,0,0,1-4.005-3.831Zm17.548-2.2a8.082,8.082,0,0,1-5.167,2.657,11.436,11.436,0,0,1-3.586,0,8.163,8.163,0,0,1-5.167-2.659V13.634A6.022,6.022,0,0,0,88.31,10.3a9.026,9.026,0,0,0,1.951,1.695,12.835,12.835,0,0,0,7.135,1.9c.336,0,.684-.011,1.042-.031Zm.986,2.3c.025-.258.038-.521.038-.782v-1.7a1.283,1.283,0,0,1-.038,2.486Zm-15.89,0A1.283,1.283,0,0,1,83.5,15.17c0,.865,0,1.705,0,1.705C83.5,17.136,83.509,17.4,83.534,17.657ZM86.8,22.024a6.939,6.939,0,0,1-2.242-4.446c-.023-.232-.035-.469-.035-.7v-.049a9.827,9.827,0,0,0,5.006,2.2,12.461,12.461,0,0,0,3.906,0,9.828,9.828,0,0,0,5.006-2.2v.049a7.037,7.037,0,0,1-.035.7A6.96,6.96,0,0,1,86.8,22.024ZM80.465,33.976a8.336,8.336,0,0,1,.614-2.31,8.815,8.815,0,0,1,2.394-3.247c.291-.248.585-.476.877-.686A14.6,14.6,0,0,1,87.813,25.9a7.951,7.951,0,0,1,1.039-.318l.027-.006,1.647,3.25a1.068,1.068,0,0,0,1.905,0l.227-.448a.512.512,0,0,0-.913-.463l-.227.448a.044.044,0,0,1-.079,0l-1.691-3.337a1.87,1.87,0,0,0,.191-.316,7.991,7.991,0,0,0,3.079,0,1.866,1.866,0,0,0,.191.314l-.384.757a.512.512,0,1,0,.913.463l.34-.67a1.6,1.6,0,0,1,.189.042c.2.047.395.113.59.18a14.738,14.738,0,0,1,3.672,1.881c.318.226.639.473.957.743a8.824,8.824,0,0,1,2.313,3.064,8.355,8.355,0,0,1,.694,2.493H80.465Z" transform="translate(-79.398 0)"/></g></g></g></svg>