<svg xmlns="http://www.w3.org/2000/svg" width="35" height="35" viewBox="0 0 35 35"><defs><style>.a{fill:#bebebe;}.b{fill:#aaa;}.c{fill:#d8e2f3;}.d{fill:#edf6ff;}.e{fill:#bacdea;}</style></defs><g transform="translate(0 0)"><g transform="translate(0.513 0.513)"><path class="a" d="M40.633,40.342a1.132,1.132,0,0,0,1.133,1.133H44.03a1.132,1.132,0,0,0,1.133-1.133V8.633A1.133,1.133,0,0,0,44.03,7.5H41.766a1.132,1.132,0,0,0-1.133,1.133Z" transform="translate(-38.368 -7.5)"/><path class="b" d="M68.147,7.5H66.519a1.133,1.133,0,0,1,1.133,1.133v31.71a1.132,1.132,0,0,1-1.133,1.133h1.628a1.133,1.133,0,0,0,1.133-1.133V8.632A1.132,1.132,0,0,0,68.147,7.5Z" transform="translate(-62.484 -7.5)"/><path class="c" d="M35.978,40.8a.566.566,0,0,0-.4-.166H8.632A1.132,1.132,0,0,0,7.5,41.766v27.18a1.132,1.132,0,0,0,1.133,1.133h31.71a1.132,1.132,0,0,0,1.133-1.133V46.531a.566.566,0,0,0-.166-.4Z" transform="translate(-7.5 -38.369)"/><path class="d" d="M201.058,70.078h-4.53l-6.795-29.445h4.53Z" transform="translate(-177.276 -38.368)"/><path class="e" d="M466.714,101.114l-1.462-1.462V123.93a1.132,1.132,0,0,1-1.133,1.133h1.628a1.133,1.133,0,0,0,1.133-1.133V101.515a.567.567,0,0,0-.166-.4Z" transform="translate(-432.905 -93.353)"/><path class="d" d="M427.164,46.833,421.833,41.5a.565.565,0,0,0-.166-.114v4.478A1.133,1.133,0,0,0,422.8,47h4.478A.569.569,0,0,0,427.164,46.833Z" transform="translate(-393.355 -39.071)"/><path class="c" d="M480.685,101.281h1.576a.584.584,0,0,0-.049-.087l0,0a.55.55,0,0,0-.064-.077l-1.462-1.462v1.628Z" transform="translate(-448.338 -93.353)"/></g><g transform="translate(0 0)"><path d="M35,8.417a.512.512,0,0,0-.149-.34L29.187,2.415a.512.512,0,0,0-.353-.149H26.091a.513.513,0,0,0,0,1.025h2.222V7.308a1.647,1.647,0,0,0,1.645,1.645h4.017V31.09a.621.621,0,0,1-.62.62H24.7L18.144,3.29h5.9a.513.513,0,0,0,0-1.025H7.82V1.606A1.608,1.608,0,0,0,6.214,0H3.871A1.608,1.608,0,0,0,2.265,1.606v.659h-.62A1.647,1.647,0,0,0,0,3.91V9.787a.513.513,0,0,0,1.025,0V3.91a.62.62,0,0,1,.62-.62H8.494V5.043a.513.513,0,0,0,1.025,0V3.29h3.043L19.121,31.71h-9.6V29.957a.513.513,0,1,0-1.025,0V31.71H1.645a.62.62,0,0,1-.62-.62V11.838a.513.513,0,0,0-1.025,0V31.09a1.647,1.647,0,0,0,1.645,1.645h.62v.659A1.608,1.608,0,0,0,3.871,35H6.214A1.608,1.608,0,0,0,7.82,33.394v-.659H33.355A1.647,1.647,0,0,0,35,31.09V8.44c0-.008,0-.016,0-.023ZM3.29,2.265V1.606a.582.582,0,0,1,.581-.581H6.214a.582.582,0,0,1,.581.581v.659Zm3.5,31.129a.582.582,0,0,1-.581.581H3.871a.582.582,0,0,1-.581-.581v-.659h3.5ZM20.173,31.71,13.615,3.29h3.478L23.65,31.71ZM29.957,7.927a.62.62,0,0,1-.62-.62V4.015L33.25,7.927Z" transform="translate(0 0)"/><path d="M124.763,102.69a.513.513,0,0,0,.513-.513V99.913a.513.513,0,0,0-1.025,0v2.265A.513.513,0,0,0,124.763,102.69Z" transform="translate(-115.756 -92.605)"/><path d="M124.25,168.445a.513.513,0,0,0,1.025,0V166.18a.513.513,0,1,0-1.025,0Z" transform="translate(-115.756 -154.342)"/><path d="M124.25,300.978a.513.513,0,0,0,1.025,0v-2.265a.513.513,0,0,0-1.025,0Z" transform="translate(-115.756 -277.815)"/><path d="M124.25,234.711a.513.513,0,0,0,1.025,0v-2.265a.513.513,0,0,0-1.025,0Z" transform="translate(-115.756 -216.078)"/><path d="M124.25,367.245a.513.513,0,0,0,1.025,0V364.98a.513.513,0,0,0-1.025,0Z" transform="translate(-115.756 -339.552)"/></g></g></svg>