<svg xmlns="http://www.w3.org/2000/svg" width="26.064" height="35" viewBox="0 0 26.064 35"><defs><style>.a{fill:#65f7ec;}.b{fill:#9ef9f3;}.c{fill:#414851;}.d{fill:#ffa685;}.e{fill:#ffebd3;}.f{fill:#ffcfad;}</style></defs><g transform="translate(-28.533 -16.373)"><g transform="translate(29.176 24.733)"><path class="a" d="M65.1,46.681v9.4a1.891,1.891,0,0,0,.54,1.323,1.892,1.892,0,0,1,.539,1.323V67.24a1.6,1.6,0,0,0,1.6,1.6h6.633a1.6,1.6,0,0,0,1.6-1.6V58.723a1.891,1.891,0,0,1,.54-1.323,1.891,1.891,0,0,0,.539-1.323v-9.4A1.681,1.681,0,0,0,75.4,45H66.78a1.681,1.681,0,0,0-1.68,1.681Z" transform="translate(-52.307 -42.841)"/><path class="b" d="M72.469,52.125h6.568v8.543H72.469Z" transform="translate(-56.969 -47.348)"/><circle class="c" cx="2.526" cy="2.526" r="2.526" transform="translate(16.258 17.621)"/><path class="d" d="M78.469,39.125h2.159v2.159H78.469Z" transform="translate(-60.764 -39.125)"/><path class="e" d="M37.18,79.877H31.562a1.279,1.279,0,0,0-1.279,1.279V90.9h8.175V81.156a1.279,1.279,0,0,0-1.279-1.279Z" transform="translate(-30.283 -64.904)"/><path class="f" d="M37.811,89.5a2.09,2.09,0,0,0-2.09,2.09V94.9a2.09,2.09,0,1,0,4.18,0V91.59A2.09,2.09,0,0,0,37.811,89.5Z" transform="translate(-33.723 -70.991)"/><path class="d" d="M38.407,73.875h2.205V76.08H38.407Z" transform="translate(-35.422 -61.107)"/></g><g transform="translate(28.533 16.373)"><path d="M93.674,89.5a.643.643,0,0,0-.643.643v.337a.643.643,0,0,0,1.286,0v-.337a.643.643,0,0,0-.643-.643Z" transform="translate(-69.333 -62.631)"/><path d="M68,26.248H63.253v-.873h1.516a.643.643,0,0,0,0-1.286h-.443A7.994,7.994,0,0,0,53.84,16.773a.643.643,0,0,0,.4,1.221,6.7,6.7,0,0,1,8.79,6.1H62.61a.643.643,0,0,0-.643.643v1.516h-2.59a2.327,2.327,0,0,0-2.324,2.324v9.4a2.521,2.521,0,0,0,.722,1.772,1.24,1.24,0,0,1,.356.873v8.517a2.241,2.241,0,0,0,2.241,2.241h6.634a2.241,2.241,0,0,0,2.241-2.241v-2.8a.643.643,0,1,0-1.286,0v2.8a.955.955,0,0,1-.955.955H60.372a.955.955,0,0,1-.955-.955V40.615a2.519,2.519,0,0,0-.723-1.772,1.24,1.24,0,0,1-.356-.873v-9.4a1.039,1.039,0,0,1,1.038-1.038H68a1.039,1.039,0,0,1,1.038,1.038v9.4a1.24,1.24,0,0,1-.355.873,2.519,2.519,0,0,0-.723,1.772v1.219a.643.643,0,1,0,1.286,0V40.615a1.24,1.24,0,0,1,.356-.873,2.52,2.52,0,0,0,.723-1.772v-9.4A2.327,2.327,0,0,0,68,26.248Z" transform="translate(-44.262 -16.373)"/><path d="M78.573,59.561V51.018a.643.643,0,0,0-.643-.643H73.762a.643.643,0,0,0,0,1.286h3.525v7.257H72.005v-7.9a.643.643,0,0,0-1.286,0v8.543a.643.643,0,0,0,.643.643H77.93a.643.643,0,0,0,.643-.643Z" transform="translate(-55.219 -37.882)"/><path d="M75.95,90.385a1.876,1.876,0,0,1-1.041-.313.643.643,0,1,0-.712,1.071A3.169,3.169,0,1,0,72.781,88.5a.643.643,0,1,0,1.286,0,1.883,1.883,0,1,1,1.883,1.883Z" transform="translate(-56.523 -59.995)"/><path d="M36.073,74.33H35.007V72.768a.643.643,0,0,0-.643-.643h-2.2a.643.643,0,0,0-.643.643V74.33H30.455a1.924,1.924,0,0,0-1.922,1.921V86a.643.643,0,0,0,.643.643h8.175A.643.643,0,0,0,37.994,86V76.252a1.923,1.923,0,0,0-1.921-1.921Zm-3.27-.919h.919v.919H32.8Zm3.9,11.941H33.264a1.448,1.448,0,0,1-1.447-1.447V80.6a1.447,1.447,0,1,1,2.894,0v3.307a.643.643,0,1,0,1.286,0V80.6a2.733,2.733,0,1,0-5.466,0v3.307a2.715,2.715,0,0,0,.419,1.447H29.819v-9.1a.636.636,0,0,1,.636-.635h5.618a.636.636,0,0,1,.635.635Z" transform="translate(-28.533 -51.64)"/><path d="M47.761,21.677a.639.639,0,0,0,.4-.142q.137-.11.279-.213a.643.643,0,1,0-.754-1.042q-.169.122-.331.253a.643.643,0,0,0,.4,1.144Z" transform="translate(-40.29 -18.767)"/><path d="M40.3,41.682a.643.643,0,0,0,.643-.643V30.061a6.676,6.676,0,0,1,1.1-3.685.643.643,0,1,0-1.074-.708,7.959,7.959,0,0,0-1.315,4.393V41.039A.643.643,0,0,0,40.3,41.682Z" transform="translate(-35.57 -22.07)"/></g></g></svg>