<svg xmlns="http://www.w3.org/2000/svg" width="28.205" height="35" viewBox="0 0 28.205 35"><defs><style>.a{fill:#efd27c;}.b{fill:#eabc73;}.c{fill:#eaa96a;}.d{fill:#e5935d;}.e{fill:#4c5e71;}.f{fill:#3c4958;}.g{fill:#a6ccfb;}.h{fill:#8cbdf9;}</style></defs><g transform="translate(-49.7 0)"><g transform="translate(50.213 0.513)"><g transform="translate(0)"><path class="a" d="M83.814,56.193h-.566V53.928a10.2,10.2,0,0,0-8.041-9.965H66.374a10.2,10.2,0,0,0-8.041,9.965v2.265h-.566a.566.566,0,0,0-.566.566v1.219a.566.566,0,0,0,.473.559L70.046,60.6a4.53,4.53,0,0,0,1.489,0l12.372-2.062a.566.566,0,0,0,.473-.559V56.759A.566.566,0,0,0,83.814,56.193Z" transform="translate(-57.201 -41.47)"/><path class="a" d="M83.814,56.193h-.566V53.928a10.2,10.2,0,0,0-8.041-9.965H66.374a10.2,10.2,0,0,0-8.041,9.965v2.265h-.566a.566.566,0,0,0-.566.566v1.219a.566.566,0,0,0,.473.559L70.046,60.6a4.53,4.53,0,0,0,1.489,0l12.372-2.062a.566.566,0,0,0,.473-.559V56.759A.566.566,0,0,0,83.814,56.193Z" transform="translate(-57.201 -41.47)"/><path class="b" d="M307.789,56.193h-.566V53.928a10.2,10.2,0,0,0-8.041-9.965H297.61a10.2,10.2,0,0,1,8.041,9.965v2.265h.566a.566.566,0,0,1,.566.566V58.72l1.1-.183a.566.566,0,0,0,.473-.559V56.759A.566.566,0,0,0,307.789,56.193Z" transform="translate(-281.176 -41.47)"/><g transform="translate(1.132)"><path class="c" d="M198.9,8.633H198a.138.138,0,0,1-.136-.125A1.133,1.133,0,0,0,196.734,7.5h-2.265a1.132,1.132,0,0,0-1.133,1.133H192.3a1.132,1.132,0,0,0-1.129,1.227l1.03,12.295H199l1.03-12.295A1.133,1.133,0,0,0,198.9,8.633Z" transform="translate(-183.144 -7.5)"/><path class="c" d="M73.767,192h2.265v-1.718a.547.547,0,0,0-.547-.547H73.767Z" transform="translate(-73.767 -177.277)"/><path class="c" d="M407.365,192H405.1v-1.718a.547.547,0,0,1,.547-.547h1.718Z" transform="translate(-382.45 -177.277)"/></g><path class="d" d="M253.3,8.633H252.4a.138.138,0,0,1-.136-.125A1.133,1.133,0,0,0,251.138,7.5h-1.572a1.133,1.133,0,0,1,1.126,1.008.138.138,0,0,0,.136.125h.905a1.132,1.132,0,0,1,1.129,1.227l-1.03,12.363H253.4l1.03-12.363A1.133,1.133,0,0,0,253.3,8.633Z" transform="translate(-236.416 -7.5)"/><path class="a" d="M241.152,143.43h-1.171a.547.547,0,0,1-.547-.547v-2.3a.547.547,0,0,1,.547-.547h1.171a.547.547,0,0,1,.547.547v2.3A.547.547,0,0,1,241.152,143.43Z" transform="translate(-226.977 -130.973)"/></g><g transform="translate(0 21.517)"><path class="e" d="M83.833,359.93a.547.547,0,0,0,.547-.547v-3.436a.547.547,0,0,0-.547-.547H57.747a.547.547,0,0,0-.547.547v3.436a.547.547,0,0,0,.547.547Z" transform="translate(-57.2 -353.135)"/><path class="f" d="M425.372,355.4H423.8a.547.547,0,0,1,.547.547v3.436a.547.547,0,0,1-.547.547h1.572a.547.547,0,0,0,.547-.547v-3.436A.547.547,0,0,0,425.372,355.4Z" transform="translate(-398.739 -353.135)"/><path class="a" d="M109.586,334.723h-5.1a1.132,1.132,0,0,1-.707-.248l-1.416-1.133a1.132,1.132,0,0,0-1.415,0l-1.416,1.133a1.132,1.132,0,0,1-.707.248H93.678a1.132,1.132,0,0,1-.81-.341l-2.212-2.265a1.133,1.133,0,0,1-.322-.791V323.4a1.132,1.132,0,0,1,1.133-1.133h20.385a1.132,1.132,0,0,1,1.133,1.133v7.927a1.132,1.132,0,0,1-.332.8l-2.265,2.265a1.133,1.133,0,0,1-.8.332Z" transform="translate(-88.069 -322.266)"/><path class="g" d="M136.152,363.328h3.363a1.132,1.132,0,0,0,.8-.332l.938-.938a1.133,1.133,0,0,0,.332-.8v-4.724a1.132,1.132,0,0,0-1.133-1.133H124.6a1.133,1.133,0,0,0-1.133,1.133v4.74a1.133,1.133,0,0,0,.322.791l.9.923a1.133,1.133,0,0,0,.81.341h3.4a1.132,1.132,0,0,0,.707-.248l2.211-1.769a1.132,1.132,0,0,1,1.415,0l2.211,1.769A1.134,1.134,0,0,0,136.152,363.328Z" transform="translate(-118.936 -353.136)"/><path class="b" d="M352.8,322.267h-1.572a1.132,1.132,0,0,1,1.133,1.133v7.927a1.132,1.132,0,0,1-.332.8l-2.265,2.265a1.133,1.133,0,0,1-.8.332h1.572a1.133,1.133,0,0,0,.8-.332l2.265-2.265a1.132,1.132,0,0,0,.332-.8V323.4A1.132,1.132,0,0,0,352.8,322.267Z" transform="translate(-329.022 -322.267)"/><path class="h" d="M337.754,355.4h-1.572a1.132,1.132,0,0,1,1.133,1.133v4.724a1.132,1.132,0,0,1-.332.8l-.938.938a1.132,1.132,0,0,1-.8.332h1.572a1.132,1.132,0,0,0,.8-.332l.938-.938a1.133,1.133,0,0,0,.332-.8v-4.724A1.133,1.133,0,0,0,337.754,355.4Z" transform="translate(-316.237 -353.135)"/></g></g><g transform="translate(49.7 0)"><path d="M76.826,14.722h-.054V12.97A10.709,10.709,0,0,0,68.737,2.6,1.644,1.644,0,0,0,67.1,1.133h-.6A1.648,1.648,0,0,0,64.935,0H62.67a1.648,1.648,0,0,0-1.563,1.133h-.6A1.644,1.644,0,0,0,58.868,2.6,10.706,10.706,0,0,0,54.4,4.991a.513.513,0,1,0,.684.764,9.684,9.684,0,0,1,3.841-2.108l.923,11.075h-.575a.513.513,0,0,0,0,1.025h9.06a.513.513,0,0,0,0-1.025h-.575L68.68,3.647a9.736,9.736,0,0,1,7.053,8.81H74.542a1.061,1.061,0,0,0-1.06,1.06v1.205H72.3a.513.513,0,0,0,0,1.025h4.53a.054.054,0,0,1,.054.054V17.02a.053.053,0,0,1-.045.053L64.463,19.135a4.008,4.008,0,0,1-1.321,0L50.77,17.073a.053.053,0,0,1-.045-.053V15.8a.054.054,0,0,1,.054-.054h4.53a.513.513,0,0,0,0-1.025H54.123V13.517a1.061,1.061,0,0,0-1.06-1.06H51.871A9.582,9.582,0,0,1,53.8,7.15a.513.513,0,1,0-.819-.617,10.613,10.613,0,0,0-2.151,6.437v1.752h-.054A1.08,1.08,0,0,0,49.7,15.8V17.02a1.076,1.076,0,0,0,.9,1.064l12.372,2.062a5.032,5.032,0,0,0,1.658,0L77,18.085a1.076,1.076,0,0,0,.9-1.064V15.8a1.08,1.08,0,0,0-1.079-1.079Zm-15.949,0L59.886,2.829a.62.62,0,0,1,.618-.671h.522V6.175a.513.513,0,0,0,1.025,0V1.645a.62.62,0,0,1,.62-.62h2.265a.62.62,0,0,1,.62.62v4.53a.513.513,0,0,0,1.025,0V2.158H67.1a.62.62,0,0,1,.618.671l-.991,11.893Zm13.631-1.205a.034.034,0,0,1,.034-.034h1.205v1.24h-1.24Zm-22.65-.034h1.205a.034.034,0,0,1,.034.034v1.205h-1.24Z" transform="translate(-49.7 0)"/><path d="M234.164,132.533h-1.171a1.061,1.061,0,0,0-1.06,1.06v2.3a1.061,1.061,0,0,0,1.06,1.06h1.171a1.061,1.061,0,0,0,1.06-1.06v-2.3A1.061,1.061,0,0,0,234.164,132.533Zm.034,3.363a.034.034,0,0,1-.034.034h-1.171a.034.034,0,0,1-.034-.034v-2.3a.034.034,0,0,1,.034-.034h1.171a.034.034,0,0,1,.034.034Z" transform="translate(-219.476 -123.473)"/><path d="M115.967,349.544v4.74a1.636,1.636,0,0,0,.468,1.149l.9.922a1.654,1.654,0,0,0,1.177.5h3.4a1.651,1.651,0,0,0,1.028-.361l2.211-1.769a.616.616,0,0,1,.774,0l2.211,1.769a1.651,1.651,0,0,0,1.028.361h3.363a1.635,1.635,0,0,0,1.163-.482l.938-.938a1.634,1.634,0,0,0,.482-1.163v-4.724a1.647,1.647,0,0,0-1.645-1.645H117.612A1.647,1.647,0,0,0,115.967,349.544Zm18.12,0v4.724a.616.616,0,0,1-.182.438l-.938.938a.616.616,0,0,1-.438.182h-3.363a.622.622,0,0,1-.387-.136l-2.211-1.769a1.636,1.636,0,0,0-2.055,0l-2.211,1.769a.622.622,0,0,1-.387.136h-3.4a.623.623,0,0,1-.443-.187l-.9-.923a.616.616,0,0,1-.176-.433v-4.74a.62.62,0,0,1,.62-.62h15.855a.62.62,0,0,1,.62.62Z" transform="translate(-111.437 -324.117)"/><path d="M76.846,317.032H75.64v-.62a1.647,1.647,0,0,0-1.645-1.645H58.546a.513.513,0,0,0,0,1.025H73.995a.62.62,0,0,1,.62.62v7.927a.616.616,0,0,1-.182.438l-2.265,2.265a.616.616,0,0,1-.438.181h-5.1a.622.622,0,0,1-.387-.136l-1.416-1.133a1.636,1.636,0,0,0-2.055,0l-1.416,1.133a.622.622,0,0,1-.387.136H55.822a.623.623,0,0,1-.443-.187l-2.212-2.265a.617.617,0,0,1-.176-.433v-7.927a.621.621,0,0,1,.62-.62H56.5a.513.513,0,1,0,0-1.025H53.61a1.647,1.647,0,0,0-1.645,1.645v.62H50.76a1.061,1.061,0,0,0-1.06,1.06v3.436a1.061,1.061,0,0,0,1.06,1.06h1.205v1.752a1.637,1.637,0,0,0,.468,1.149l2.212,2.265a1.654,1.654,0,0,0,1.177.5h5.149A1.651,1.651,0,0,0,62,327.889l1.416-1.133a.616.616,0,0,1,.774,0l1.416,1.133a1.651,1.651,0,0,0,1.028.361h5.1a1.634,1.634,0,0,0,1.163-.482l2.265-2.265a1.635,1.635,0,0,0,.482-1.163v-1.752h1.205a1.061,1.061,0,0,0,1.06-1.06v-3.436A1.061,1.061,0,0,0,76.846,317.032Zm-26.086,4.53a.034.034,0,0,1-.034-.034v-3.436a.034.034,0,0,1,.034-.034h1.205v3.5Zm26.12-.034a.034.034,0,0,1-.034.034H75.64v-3.5h1.205a.034.034,0,0,1,.034.034Z" transform="translate(-49.7 -293.25)"/></g></g></svg>