<svg xmlns="http://www.w3.org/2000/svg" width="35" height="34.914" viewBox="0 0 35 34.914"><defs><style>.a{fill:#be60fa;}.b{fill:#d7a5fc;}.c{fill:#be60ff;}</style></defs><path class="a" d="M124.25,8.126V42.017a2.052,2.052,0,0,0,1.18-.373,15.92,15.92,0,0,0,6.8-13.06V16.107a7.981,7.981,0,0,0-7.981-7.981Z" transform="translate(-115.756 -7.613)"/><path class="b" d="M21.411,28.584V16.107c0-4.408-2.655-7.981-5.93-7.981A7.981,7.981,0,0,0,7.5,16.107V28.584a15.919,15.919,0,0,0,6.8,13.06,2.052,2.052,0,0,0,1.181.373,1.275,1.275,0,0,0,.877-.373c3.056-2.887,5.053-7.653,5.053-13.06Z" transform="translate(-6.987 -7.613)"/><path class="b" d="M116.365,62.984a2.05,2.05,0,0,1,0-1.833,2.05,2.05,0,0,1-.7-1.694,2.05,2.05,0,0,1-1.3-1.3,2.05,2.05,0,0,1-1.694-.7,2.05,2.05,0,0,1-1.833,0V70.343a2.05,2.05,0,0,1,1.833,0,2.05,2.05,0,0,1,1.694-.7,2.05,2.05,0,0,1,1.3-1.3,2.05,2.05,0,0,1,.7-1.694,2.05,2.05,0,0,1,0-1.833,2.05,2.05,0,0,1,0-1.833Z" transform="translate(-103.263 -53.574)"/><path class="c" d="M61.193,69.792a1.576,1.576,0,0,1,.81-.151,2.05,2.05,0,0,1,1.3-1.3,2.05,2.05,0,0,1,.7-1.694,2.05,2.05,0,0,1,0-1.833,2.05,2.05,0,0,1,0-1.833,2.05,2.05,0,0,1,0-1.833,2.05,2.05,0,0,1-.7-1.694,2.05,2.05,0,0,1-1.3-1.3,1.575,1.575,0,0,1-.81-.151,1.812,1.812,0,0,1-.666-.551,2.05,2.05,0,0,1-1.694.7,2.05,2.05,0,0,1-1.3,1.3,2.05,2.05,0,0,1-.7,1.694,2.05,2.05,0,0,1,0,1.833,2.05,2.05,0,0,1,0,1.833,2.05,2.05,0,0,1,0,1.833,2.05,2.05,0,0,1,.7,1.694,2.05,2.05,0,0,1,1.3,1.3,2.05,2.05,0,0,1,1.694.7A1.811,1.811,0,0,1,61.193,69.792Z" transform="translate(-52.95 -53.574)"/><path class="a" d="M387.75,8.126V42.017a2.052,2.052,0,0,0,1.18-.373,15.919,15.919,0,0,0,6.8-13.06V16.107a7.981,7.981,0,0,0-7.981-7.981Z" transform="translate(-361.244 -7.613)"/><path class="b" d="M284.911,28.584V16.107c0-4.408-2.655-7.981-5.93-7.981A7.981,7.981,0,0,0,271,16.107V28.584a15.919,15.919,0,0,0,6.8,13.06,2.052,2.052,0,0,0,1.181.373,1.275,1.275,0,0,0,.877-.373c3.056-2.887,5.053-7.653,5.053-13.06Z" transform="translate(-252.475 -7.613)"/><path class="b" d="M379.865,62.984a2.05,2.05,0,0,1,0-1.833,2.05,2.05,0,0,1-.7-1.694,2.05,2.05,0,0,1-1.3-1.3,2.271,2.271,0,0,0-2.611-.485,2.042,2.042,0,0,1-.917-.216V70.343a2.271,2.271,0,0,0,2.6-.551,2.042,2.042,0,0,1,.93-.151,2.05,2.05,0,0,1,1.3-1.3,2.05,2.05,0,0,1,.7-1.694,2.05,2.05,0,0,1,0-1.833,2.05,2.05,0,0,1,0-1.833Z" transform="translate(-348.75 -53.574)"/><path class="c" d="M324.693,69.792a1.576,1.576,0,0,1,.81-.151,2.05,2.05,0,0,1,1.3-1.3,2.05,2.05,0,0,1,.7-1.694,2.05,2.05,0,0,1,0-1.833,2.05,2.05,0,0,1,0-1.833,2.05,2.05,0,0,1,0-1.833,2.05,2.05,0,0,1-.7-1.694,2.05,2.05,0,0,1-1.3-1.3,1.575,1.575,0,0,1-.81-.151,1.812,1.812,0,0,1-.666-.551,2.05,2.05,0,0,1-1.694.7,2.05,2.05,0,0,1-1.3,1.3,2.05,2.05,0,0,1-.7,1.694,2.05,2.05,0,0,1,0,1.833,2.05,2.05,0,0,1,0,1.833,2.05,2.05,0,0,1,0,1.833,2.05,2.05,0,0,1,.7,1.694,2.05,2.05,0,0,1,1.3,1.3,2.05,2.05,0,0,1,1.694.7A1.811,1.811,0,0,1,324.693,69.792Z" transform="translate(-298.437 -53.574)"/><path d="M8.494.626A8.5,8.5,0,0,0,0,9.12V21.6A16.432,16.432,0,0,0,7.019,35.076a2.574,2.574,0,0,0,2.95,0,16.623,16.623,0,0,0,5.1-5.764A16.475,16.475,0,0,0,16.987,21.6a.513.513,0,0,0-1.025,0A15.466,15.466,0,0,1,9.38,34.237a1.546,1.546,0,0,1-1.772,0A15.466,15.466,0,0,1,1.025,21.6V9.12a7.468,7.468,0,0,1,14.937,0V19.546a.513.513,0,0,0,1.025,0V9.12A8.5,8.5,0,0,0,8.494.626Z" transform="translate(0 -0.626)"/><path d="M59.525,55.77a1.538,1.538,0,0,1,0-1.374.513.513,0,0,0-.123-.617,1.538,1.538,0,0,1-.526-1.27.513.513,0,0,0-.35-.523,1.538,1.538,0,0,1-.972-.972.511.511,0,0,0-.523-.35,1.538,1.538,0,0,1-1.27-.526.513.513,0,0,0-.617-.123,1.538,1.538,0,0,1-1.374,0,.513.513,0,0,0-.617.123,1.538,1.538,0,0,1-1.27.526.51.51,0,0,0-.523.35,1.538,1.538,0,0,1-.972.972.513.513,0,0,0-.35.523,1.538,1.538,0,0,1-.526,1.27.513.513,0,0,0-.123.617,1.538,1.538,0,0,1,0,1.374.513.513,0,0,0,0,.459,1.538,1.538,0,0,1,0,1.374.513.513,0,0,0,0,.459,1.538,1.538,0,0,1,0,1.374.513.513,0,0,0,.123.617,1.537,1.537,0,0,1,.526,1.27.513.513,0,0,0,.35.523,1.538,1.538,0,0,1,.972.972.513.513,0,0,0,.523.35,1.537,1.537,0,0,1,1.27.526.513.513,0,0,0,.617.123,1.538,1.538,0,0,1,1.374,0,.513.513,0,0,0,.617-.123,1.537,1.537,0,0,1,1.27-.526.512.512,0,0,0,.523-.35,1.538,1.538,0,0,1,.972-.972.513.513,0,0,0,.35-.523,1.538,1.538,0,0,1,.526-1.27.513.513,0,0,0,.123-.617,1.538,1.538,0,0,1,0-1.374.513.513,0,0,0,0-.459,1.538,1.538,0,0,1,0-1.374A.513.513,0,0,0,59.525,55.77Zm-1.018,2.063a2.57,2.57,0,0,0-.043,1.713,2.573,2.573,0,0,0-.61,1.472,2.575,2.575,0,0,0-1.127,1.127,2.574,2.574,0,0,0-1.472.61,2.573,2.573,0,0,0-1.594,0,2.573,2.573,0,0,0-1.472-.61,2.575,2.575,0,0,0-1.127-1.127,2.574,2.574,0,0,0-.61-1.472,2.57,2.57,0,0,0-.043-1.713,2.568,2.568,0,0,0,0-1.833,2.57,2.57,0,0,0,.043-1.713,2.575,2.575,0,0,0,.61-1.472,2.575,2.575,0,0,0,1.127-1.127,2.574,2.574,0,0,0,1.472-.61,2.573,2.573,0,0,0,1.594,0,2.574,2.574,0,0,0,1.472.61,2.574,2.574,0,0,0,1.127,1.127,2.573,2.573,0,0,0,.61,1.472A2.57,2.57,0,0,0,58.506,56a2.568,2.568,0,0,0,0,1.833Z" transform="translate(-45.964 -46.59)"/><path d="M271.994.626A8.5,8.5,0,0,0,263.5,9.12V21.6a16.432,16.432,0,0,0,7.019,13.479,2.574,2.574,0,0,0,2.95,0A16.432,16.432,0,0,0,280.487,21.6V9.12A8.5,8.5,0,0,0,271.994.626ZM279.462,21.6a15.466,15.466,0,0,1-6.582,12.64,1.546,1.546,0,0,1-1.772,0,15.466,15.466,0,0,1-6.582-12.64V9.12a7.468,7.468,0,0,1,14.937,0Z" transform="translate(-245.487 -0.626)"/><path d="M323.025,55.77a1.538,1.538,0,0,1,0-1.374.513.513,0,0,0-.123-.617,1.538,1.538,0,0,1-.526-1.27.513.513,0,0,0-.35-.523,1.538,1.538,0,0,1-.972-.972.511.511,0,0,0-.523-.35,1.538,1.538,0,0,1-1.27-.526.513.513,0,0,0-.617-.123,1.538,1.538,0,0,1-1.374,0,.513.513,0,0,0-.617.123,1.538,1.538,0,0,1-1.27.526.51.51,0,0,0-.523.35,1.538,1.538,0,0,1-.972.972.513.513,0,0,0-.35.523,1.538,1.538,0,0,1-.526,1.27.513.513,0,0,0-.123.617,1.538,1.538,0,0,1,0,1.374.513.513,0,0,0,0,.459,1.538,1.538,0,0,1,0,1.374.513.513,0,0,0,0,.459,1.538,1.538,0,0,1,0,1.374.513.513,0,0,0,.123.617,1.537,1.537,0,0,1,.526,1.27.513.513,0,0,0,.35.523,1.538,1.538,0,0,1,.972.972.513.513,0,0,0,.523.35,1.537,1.537,0,0,1,1.27.526.513.513,0,0,0,.617.123,1.538,1.538,0,0,1,1.374,0,.513.513,0,0,0,.617-.123,1.537,1.537,0,0,1,1.27-.526.512.512,0,0,0,.523-.35,1.538,1.538,0,0,1,.972-.972.513.513,0,0,0,.35-.523,1.538,1.538,0,0,1,.526-1.27.513.513,0,0,0,.123-.617,1.538,1.538,0,0,1,0-1.374.513.513,0,0,0,0-.459,1.538,1.538,0,0,1,0-1.374A.513.513,0,0,0,323.025,55.77Zm-1.018,2.063a2.57,2.57,0,0,0-.043,1.713,2.574,2.574,0,0,0-.61,1.472,2.575,2.575,0,0,0-1.127,1.127,2.219,2.219,0,0,1-2.269.483,1.164,1.164,0,0,1-1.485-.3,2.542,2.542,0,0,0-.784-.188,2.575,2.575,0,0,0-1.127-1.127,2.574,2.574,0,0,0-.61-1.472,2.57,2.57,0,0,0-.043-1.713,2.568,2.568,0,0,0,0-1.833,2.57,2.57,0,0,0,.043-1.713,2.575,2.575,0,0,0,.61-1.472,2.575,2.575,0,0,0,1.127-1.127,2.574,2.574,0,0,0,1.472-.61,2.219,2.219,0,0,1,2.281.422,2.543,2.543,0,0,0,.785.188,2.574,2.574,0,0,0,1.127,1.127,2.573,2.573,0,0,0,.61,1.472A2.57,2.57,0,0,0,322.006,56a2.568,2.568,0,0,0,0,1.833Z" transform="translate(-291.451 -46.59)"/></svg>