<svg xmlns="http://www.w3.org/2000/svg" width="26.821" height="35" viewBox="0 0 26.821 35"><defs><style>.a{fill:#4b5055;}.b{fill:#5a5f64;}</style></defs><g transform="translate(0.001)"><g transform="translate(0.547 0.55)"><path class="a" d="M18.886,19.043a20.675,20.675,0,0,1-.556,4.849A2.464,2.464,0,0,1,15.951,25.8h-5a2.464,2.464,0,0,1-2.379-1.907,20.675,20.675,0,0,1-.555-4.849c0-6.075,2.433-11,5.433-11a2.826,2.826,0,0,1,1.03.2C16.991,9.214,18.886,13.68,18.886,19.043Zm0,0" transform="translate(-8.02 -8.043)"/><path class="a" d="M35.9,326.749v3.069a4.1,4.1,0,0,1-3.055,3.953,4.047,4.047,0,0,1-1.03.133,4.1,4.1,0,0,1-4.086-4.086v-3.069a.806.806,0,0,1,.8-.8H35.1A.806.806,0,0,1,35.9,326.749Zm0,0" transform="translate(-26.383 -304.214)"/><path class="a" d="M236.218,80.637a20.661,20.661,0,0,1-.556,4.849,2.465,2.465,0,0,1-2.38,1.907h-5a2.466,2.466,0,0,1-2.38-1.907,20.7,20.7,0,0,1-.555-4.849c0-6.075,2.433-11,5.433-11a2.837,2.837,0,0,1,1.03.2C234.323,70.808,236.218,75.274,236.218,80.637Zm0,0" transform="translate(-210.495 -65.426)"/><path class="a" d="M253.233,388.343v3.069a4.1,4.1,0,0,1-3.055,3.953,4.046,4.046,0,0,1-1.03.133,4.1,4.1,0,0,1-4.086-4.086v-3.069a.806.806,0,0,1,.8-.8h6.564A.806.806,0,0,1,253.233,388.343Zm0,0" transform="translate(-228.858 -361.597)"/></g><path class="b" d="M46.966,21.736a20.675,20.675,0,0,1-.556,4.849,2.464,2.464,0,0,1-2.379,1.907H41.095a2.464,2.464,0,0,1-2.379-1.907,20.675,20.675,0,0,1-.555-4.849c0-5.362,1.895-9.828,4.4-10.8C45.071,11.907,46.966,16.373,46.966,21.736Zm0,0" transform="translate(-35.552 -10.186)"/><path class="b" d="M63.982,326.749v3.069a4.1,4.1,0,0,1-3.055,3.953,4.1,4.1,0,0,1-3.056-3.953v-3.069a.806.806,0,0,1,.8-.8h4.5A.806.806,0,0,1,63.982,326.749Zm0,0" transform="translate(-53.916 -303.664)"/><path class="b" d="M264.3,83.326a20.662,20.662,0,0,1-.556,4.849,2.465,2.465,0,0,1-2.38,1.907h-2.936a2.466,2.466,0,0,1-2.38-1.907,20.705,20.705,0,0,1-.555-4.849c0-5.363,1.895-9.828,4.4-10.8C262.4,73.5,264.3,77.963,264.3,83.326Zm0,0" transform="translate(-238.028 -67.566)"/><path class="b" d="M281.314,388.343v3.069a3.157,3.157,0,1,1-6.11,0v-3.069a.806.806,0,0,1,.8-.8h4.5A.806.806,0,0,1,281.314,388.343Zm0,0" transform="translate(-256.391 -361.047)"/><path d="M5.98,0A3.772,3.772,0,0,0,3.488,1.014a.549.549,0,0,0,.719.831c2.178-1.884,4.24.046,5.382,2.746H2.366A10.2,10.2,0,0,1,3.02,3.3a.549.549,0,0,0-.94-.57C-.124,6.371-.488,12.181.569,16.529a3.009,3.009,0,0,0,2.913,2.326h5a3.009,3.009,0,0,0,2.913-2.326C13.194,9.117,10.577,0,5.98,0ZM1.153,9.977h9.653a21.706,21.706,0,0,1,0,3.188H1.156A21.928,21.928,0,0,1,1.153,9.977ZM10,5.69a17.753,17.753,0,0,1,.7,3.188H1.262A17.47,17.47,0,0,1,1.956,5.69Zm.328,10.579a1.914,1.914,0,0,1-1.846,1.487h-5a1.913,1.913,0,0,1-1.846-1.487,18.548,18.548,0,0,1-.369-2.006h9.427A18.548,18.548,0,0,1,10.325,16.269Zm0,0" transform="translate(0)"/><path d="M27.612,317.9H21.049a1.355,1.355,0,0,0-1.353,1.353v3.07a4.635,4.635,0,0,0,9.125,1.147.549.549,0,0,0-1.064-.273,3.536,3.536,0,0,1-6.962-.873v-3.069a.258.258,0,0,1,.254-.254h6.563a.258.258,0,0,1,.254.254v2.03a.549.549,0,0,0,1.1,0v-2.03A1.355,1.355,0,0,0,27.612,317.9Zm0,0" transform="translate(-18.35 -296.171)"/><path d="M229.009,69.641a.549.549,0,1,0-1.085.174c.034.215.065.433.092.651h-9.432a17.729,17.729,0,0,1,.7-3.188h8.039q.092.285.176.585a.549.549,0,1,0,1.058-.3c-1.921-6.852-6.844-8.014-9.592-2.451-1.809,3.663-2.066,8.935-1.077,13a3.009,3.009,0,0,0,2.913,2.326h5a3.009,3.009,0,0,0,2.913-2.326A22.132,22.132,0,0,0,229.009,69.641Zm-.883,1.924a21.745,21.745,0,0,1,0,3.188h-9.649a21.669,21.669,0,0,1,0-3.188Zm-1.211-5.386h-7.224C221.678,61.482,224.968,61.575,226.915,66.18Zm.728,11.678a1.913,1.913,0,0,1-1.846,1.487h-5a1.913,1.913,0,0,1-1.846-1.487,18.55,18.55,0,0,1-.37-2.006h9.427A18.483,18.483,0,0,1,227.643,77.858Zm0,0" transform="translate(-202.462 -57.378)"/><path d="M244.944,379.5h-6.563a1.355,1.355,0,0,0-1.353,1.353v3.07a4.635,4.635,0,0,0,9.27,0v-3.07A1.355,1.355,0,0,0,244.944,379.5Zm.254,4.423a3.536,3.536,0,1,1-7.072,0v-3.07a.258.258,0,0,1,.254-.254h6.563a.258.258,0,0,1,.254.254Zm0,0" transform="translate(-220.825 -353.558)"/></g></svg>