<svg xmlns="http://www.w3.org/2000/svg" width="34.971" height="35" viewBox="0 0 34.971 35"><defs><style>.a{fill:#f37c7c;}.a,.b,.c,.d,.e,.f,.g{fill-rule:evenodd;}.b{fill:#f9f7f8;}.c{fill:#c3ddff;}.d{fill:#e0dfe1;}.e{fill:#d3cfd2;}.f{fill:#f0f0f0;}.g{fill:#ee6161;}</style></defs><g transform="translate(-0.214 0)"><g transform="translate(24.854 0.512)"><path class="a" d="M367.849,17.326l2.834-2.836a.341.341,0,0,0,0-.478l-3.2-3.207-3.2-3.207a.34.34,0,0,0-.478,0l-2.834,2.836,5.827,5.834Z" transform="translate(-360.963 -7.5)"/></g><g transform="translate(5.034 2.724)"><path class="b" d="M82.622,62.376l15.584-15.6L91.32,39.886l-15.584,15.6c-3.1,3.1-.135,4.909-3.1,7.874L70.778,65.22l2.116,2.118,1.861-1.862c2.962-2.965,4.766,0,7.867-3.1Zm6.385-13.283a2.286,2.286,0,0,1,0,3.219l-3.781,3.783a2.274,2.274,0,0,1-3.214-3.219l3.78-3.783a2.281,2.281,0,0,1,3.216,0Zm3.9-1.86a1.443,1.443,0,1,1,0-2.042A1.441,1.441,0,0,1,92.905,47.233Z" transform="translate(-70.778 -39.886)"/></g><g transform="translate(15.603 11.268)"><path class="c" d="M229.4,172.641l3.782-3.783a2.275,2.275,0,0,0-3.216-3.219l-3.78,3.783a2.274,2.274,0,1,0,3.214,3.219Z" transform="translate(-225.521 -164.977)"/></g><g transform="translate(24.699 7.608)"><path class="a" d="M361.148,113.851a1.443,1.443,0,1,0-2.04,0A1.448,1.448,0,0,0,361.148,113.851Z" transform="translate(-358.685 -111.387)"/></g><g transform="translate(0.727 29.31)"><path class="d" d="M12.891,431.231l-2.116-2.118-2.621,2.623a1.5,1.5,0,1,0,2.116,2.118Z" transform="translate(-7.718 -429.113)"/></g><g transform="translate(0.776 30.781)"><path class="e" d="M10.948,453.931l2.208-2.212L12.1,450.661l-2.208,2.21a1.5,1.5,0,0,1-1.445.386,1.494,1.494,0,0,0,2.5.673Z" transform="translate(-8.446 -450.661)"/></g><g transform="translate(6.479 8.557)"><path class="f" d="M94.467,145.033c2.962-2.965,4.766,0,7.867-3.1l15.584-15.6-1.057-1.06-15.586,15.6c-3.1,3.1-4.9.135-7.865,3.1l-1.474,1.476,1.057,1.06Z" transform="translate(-91.936 -125.276)"/></g><g transform="translate(31.405 5.966)"><path class="g" d="M457.929,91l2.112-2.114a.341.341,0,0,0,0-.478l-1.059-1.058a.337.337,0,0,1,0,.478l-2.11,2.112Z" transform="translate(-456.872 -87.352)"/></g><g transform="translate(3.37 27.672)"><path class="a" d="M48.538,409.3l2.05-2.049-2.116-2.118-2.05,2.051Z" transform="translate(-46.422 -405.137)"/></g><g transform="translate(4.429 28.73)"><path class="g" d="M62.983,423.735l2.05-2.049-1.057-1.06-2.05,2.051Z" transform="translate(-61.926 -420.626)"/></g><g transform="translate(0.214 0)"><path d="M353.155,107.816a1.942,1.942,0,0,0,1.383-.574,1.963,1.963,0,0,0,0-2.765h0a1.955,1.955,0,1,0-1.382,3.34ZM352.5,105.2a.932.932,0,1,1,0,1.317A.929.929,0,0,1,352.5,105.2Z" transform="translate(-327.228 -96.81)"/><path d="M220.8,166.812a2.761,2.761,0,0,0,1.969-.815l3.782-3.783a2.8,2.8,0,0,0,0-3.942h0a2.79,2.79,0,0,0-3.94,0l-3.78,3.783a2.786,2.786,0,0,0,1.969,4.758Zm-1.759-2.786a1.753,1.753,0,0,1,.514-1.248l3.78-3.783a1.763,1.763,0,0,1,2.491,2.495l-3.782,3.783a1.759,1.759,0,0,1-3-1.247Z" transform="translate(-203.144 -146.702)"/><path d="M180.7,277.625a.512.512,0,0,0,.362-.874l-3.216-3.219a.512.512,0,0,0-.725.724l3.216,3.219A.511.511,0,0,0,180.7,277.625Z" transform="translate(-164.902 -254.709)"/><path d="M149.916,300.766a.512.512,0,0,0,0,.724l3.216,3.219a.512.512,0,1,0,.725-.724l-3.216-3.219A.512.512,0,0,0,149.916,300.766Z" transform="translate(-139.551 -280.083)"/><path d="M34.937,6.662,28.528.248a.852.852,0,0,0-1.2,0L9.629,17.96a5.419,5.419,0,0,0-1.751,4.386,4.184,4.184,0,0,1-1.346,3.488L5.058,27.31.8,31.571a2.009,2.009,0,0,0,2.841,2.842l5.732-5.737a4.176,4.176,0,0,1,3.485-1.347,5.411,5.411,0,0,0,4.384-1.754l5.3-5.344a.512.512,0,1,0-.727-.722l-5.3,5.343A4.389,4.389,0,0,1,12.844,26.3a5.19,5.19,0,0,0-4.2,1.647L7.536,29.065,6.144,27.672l1.113-1.114A5.2,5.2,0,0,0,8.9,22.36a4.4,4.4,0,0,1,1.451-3.675L25.576,3.449l2.188,2.19a.512.512,0,0,0,.725-.724L26.3,2.724,27.927,1.1l6.162,6.167L32.462,8.892,30.123,6.551a.512.512,0,0,0-.725.724l2.339,2.341-8.114,8.121a.512.512,0,0,0,.725.724l10.588-10.6a.852.852,0,0,0,0-1.2ZM2.916,33.689A.985.985,0,1,1,1.525,32.3L3.37,30.448,4.763,31.84Zm3.9-3.9L5.487,31.116,4.095,29.723,5.42,28.4Z" transform="translate(-0.214 0)"/></g></g></svg>