<svg xmlns="http://www.w3.org/2000/svg" width="14.15" height="35" viewBox="0 0 14.15 35"><defs><style>.a{fill:#8bf0ff;}.b{fill:#63e7ff;}.c{fill:#546e7a;}.d{fill:#455a64;}.e{fill:#bbf7ff;}</style></defs><g transform="translate(-152.5 0)"><path class="a" d="M224.6,53.523H228.9v3.715H224.6Z" transform="translate(-67.175 -49.864)"/><path class="b" d="M257.4,53.523h2.051v3.715H257.4Z" transform="translate(-97.725 -49.864)"/><path class="c" d="M220.605,11.6H215V8.363a.863.863,0,0,1,.863-.863h3.879a.863.863,0,0,1,.863.863Z" transform="translate(-58.227 -6.987)"/><path class="d" d="M267,7.5v4.1h2.051V8.363a.863.863,0,0,0-.863-.863Z" transform="translate(-106.673 -6.987)"/><path class="e" d="M181.56,129.98h-9.639a1,1,0,0,1-1-1V107.111a4.611,4.611,0,0,1,4.611-4.611h2.41a4.611,4.611,0,0,1,4.611,4.611v21.873A1,1,0,0,1,181.56,129.98Z" transform="translate(-17.165 -95.493)"/><path class="a" d="M245.677,102.5h-2.051a4.611,4.611,0,0,1,4.611,4.611v21.873a1,1,0,0,1-1,1h2.051a1,1,0,0,0,1-1V107.111A4.611,4.611,0,0,0,245.677,102.5Z" transform="translate(-84.897 -95.493)"/><path class="a" d="M172.441,354.125H160.684a.684.684,0,0,1-.684-.684v-1.367a.684.684,0,0,1,.684-.684h11.758a.684.684,0,0,1,.684.684v1.367A.684.684,0,0,1,172.441,354.125Z" transform="translate(-6.987 -327.37)"/><path class="b" d="M314.051,351.391H312a.684.684,0,0,1,.684.684v1.367a.684.684,0,0,1-.684.684h2.051a.684.684,0,0,0,.684-.684v-1.367A.684.684,0,0,0,314.051,351.391Z" transform="translate(-148.597 -327.37)"/><path class="a" d="M172.673,421.347H160.933a.684.684,0,0,1-.684-.684V419.3a.684.684,0,0,1,.684-.684h11.741a.684.684,0,0,1,.684.684v1.367A.684.684,0,0,1,172.673,421.347Z" transform="translate(-7.219 -389.997)"/><path class="b" d="M314.051,418.613H312a.684.684,0,0,1,.684.684v1.367a.684.684,0,0,1-.684.684h2.051a.684.684,0,0,0,.684-.684V419.3A.684.684,0,0,0,314.051,418.613Z" transform="translate(-148.597 -389.997)"/><path class="a" d="M172.441,163.472H160.684a.684.684,0,0,1-.684-.684v-1.367a.684.684,0,0,1,.684-.684h11.758a.684.684,0,0,1,.684.684v1.367A.684.684,0,0,1,172.441,163.472Z" transform="translate(-6.987 -149.75)"/><path class="b" d="M314.051,160.738H312a.684.684,0,0,1,.684.684v1.367a.684.684,0,0,1-.684.684h2.051a.684.684,0,0,0,.684-.684v-1.367A.684.684,0,0,0,314.051,160.738Z" transform="translate(-148.597 -149.75)"/><path class="a" d="M172.673,230.006H160.933a.684.684,0,0,1-.684-.684v-1.367a.684.684,0,0,1,.684-.684h11.741a.684.684,0,0,1,.684.684v1.367A.684.684,0,0,1,172.673,230.006Z" transform="translate(-7.219 -211.736)"/><path class="b" d="M314.051,227.272H312a.684.684,0,0,1,.684.684v1.367a.684.684,0,0,1-.684.684h2.051a.684.684,0,0,0,.684-.684v-1.367A.684.684,0,0,0,314.051,227.272Z" transform="translate(-148.597 -211.736)"/><path d="M166.65,13.039V11.672a1.2,1.2,0,0,0-.866-1.149,5.147,5.147,0,0,0-3.55-3.815V5.127h.144a.513.513,0,0,0,.513-.513V1.376A1.377,1.377,0,0,0,161.515,0h-3.879a1.377,1.377,0,0,0-1.376,1.376V4.614a.513.513,0,0,0,.513.513h.144V6.7a5.1,5.1,0,0,0-1.312.6.513.513,0,0,0,.554.863,4.082,4.082,0,0,1,2.212-.648h2.41a4.115,4.115,0,0,1,3.936,2.956H154.433a4.059,4.059,0,0,1,.394-.918.513.513,0,0,0-.886-.516,5.07,5.07,0,0,0-.575,1.482,1.2,1.2,0,0,0-.866,1.149v1.367a1.2,1.2,0,0,0,.746,1.108v.972a1.2,1.2,0,0,0-.729,1.1v1.367a1.2,1.2,0,0,0,.729,1.1V23.6A1.2,1.2,0,0,0,152.5,24.7v1.367a1.2,1.2,0,0,0,.746,1.108V28.2a1.2,1.2,0,0,0-.729,1.1v1.367a1.2,1.2,0,0,0,.729,1.1v1.723A1.511,1.511,0,0,0,154.756,35h9.639a1.511,1.511,0,0,0,1.509-1.509V31.775a1.2,1.2,0,0,0,.746-1.108V29.3a1.2,1.2,0,0,0-.746-1.108V27.179a1.2,1.2,0,0,0,.746-1.108V24.7A1.2,1.2,0,0,0,165.9,23.6v-4.9a1.2,1.2,0,0,0,.746-1.108V16.22a1.2,1.2,0,0,0-.746-1.108v-.966a1.2,1.2,0,0,0,.746-1.108ZM157.285,1.376a.351.351,0,0,1,.35-.35h3.879a.351.351,0,0,1,.35.35V4.1h-4.58Zm1.085,5.118c-.144,0-.286.007-.429.019V5.127h3.268V6.513c-.142-.012-.284-.019-.429-.019Zm7.021,11.264h-1.437a.513.513,0,0,0,0,1.025h.925v4.725H154.272V18.783h7.494a.513.513,0,0,0,0-1.025h-8.053a.171.171,0,0,1-.171-.171V16.22a.171.171,0,0,1,.171-.171h11.741a.171.171,0,0,1,.171.171v1.367a.171.171,0,0,1-.171.171h-.063Zm0,8.485H153.7a.171.171,0,0,1-.171-.171V24.7a.171.171,0,0,1,.171-.171h11.758a.171.171,0,0,1,.171.171v1.367a.171.171,0,0,1-.171.171h-.063ZM154.272,28.1v-.835h10.607V28.1Zm0-13.08v-.788h10.607v.788ZM153.8,11.5h11.651a.171.171,0,0,1,.171.171v1.367a.171.171,0,0,1-.171.171H153.7a.171.171,0,0,1-.171-.171V11.672a.171.171,0,0,1,.171-.171h.107Zm10.592,22.474h-9.639a.484.484,0,0,1-.484-.483V31.863h.945a.513.513,0,0,0,0-1.025h-1.5a.171.171,0,0,1-.171-.171V29.3a.171.171,0,0,1,.171-.171h11.741a.171.171,0,0,1,.171.171v1.367a.171.171,0,0,1-.171.171h-8.037a.513.513,0,0,0,0,1.025h7.462v1.628A.484.484,0,0,1,164.395,33.975Z"/></g></svg>