<svg xmlns="http://www.w3.org/2000/svg" xmlns:xlink="http://www.w3.org/1999/xlink" width="49.637" height="25" viewBox="0 0 49.637 25"><defs><style>.a{fill:#fbffff;}.b{clip-path:url(#a);}.c{fill:#99e6fc;}.d{fill:#62dbfb;}.e{fill:#dff6fd;}.f{fill:#f3eae6;}.g{fill:#f9f3f1;}.h{fill:#f2fbff;}</style><clipPath id="a"><rect class="a" width="49.637" height="25" transform="translate(0 80)"/></clipPath></defs><g class="b" transform="translate(0 -80)"><g transform="translate(8.2 80)"><g transform="translate(0.483 0.485)"><g transform="translate(2.332 3.402)"><path class="c" d="M105.076,221.633v17.925a70.167,70.167,0,0,1-27.606,0V221.633c1.327-.281,3.492-.518,4.819-.712a64.417,64.417,0,0,1,17.908-.009C101.545,221.108,103.729,221.348,105.076,221.633Z" transform="translate(-77.47 -220.293)"/></g><path class="d" d="M82.54,263.6a3.359,3.359,0,0,1-2.943-3.336V248.642a2.943,2.943,0,0,0-.094-.74c-.744.1-1.465.217-2.033.337v17.925a70.167,70.167,0,0,0,27.606,0v-3.4A70.605,70.605,0,0,1,82.54,263.6Z" transform="translate(-75.139 -243.497)"/><path class="e" d="M817.053,243.089h-1.27a1.659,1.659,0,0,1-1.659-1.659V224.266a1.659,1.659,0,0,1,1.659-1.659h1.27a.24.24,0,0,1,.24.24v20A.24.24,0,0,1,817.053,243.089Z" transform="translate(-785.025 -219.121)"/><path class="e" d="M13.544,243.089h1.271a1.659,1.659,0,0,0,1.659-1.659V224.266a1.659,1.659,0,0,0-1.659-1.659H13.544a.24.24,0,0,0-.24.24v20A.24.24,0,0,0,13.544,243.089Z" transform="translate(-13.304 -219.121)"/><path class="f" d="M224.886,401.014a1.61,1.61,0,0,1,1.61,1.61v5.945a1.61,1.61,0,0,1-1.61,1.61h-14.8a1.61,1.61,0,0,1-1.61-1.61v-5.945a1.61,1.61,0,0,1,1.61-1.61Z" transform="translate(-201.384 -391.046)"/><path class="g" d="M275.847,454.505v4.748a.275.275,0,0,1-.275.275h-13.6a.275.275,0,0,1-.275-.275v-4.748a.275.275,0,0,1,.275-.275h13.6A.275.275,0,0,1,275.847,454.505Z" transform="translate(-252.668 -442.328)"/><g transform="translate(7.731)"><path class="h" d="M242.6,127.09a.248.248,0,0,1,.184.349l-2.337,4.992-1.6,9.059h-8.828l-1.6-9.059-2.337-4.992a.248.248,0,0,1,.184-.349l1.329-.217a6.4,6.4,0,0,1,2.841.18l1.044.31.619-.243a6.388,6.388,0,0,1,4.662,0l.619.243,1.044-.31a6.4,6.4,0,0,1,2.841-.18Z" transform="translate(-226.066 -126.68)"/></g><g transform="translate(7.731 0.112)"><path class="e" d="M239.163,142.687h-3.05a4.624,4.624,0,0,1-4.554-3.821l-.7-3.949-2.337-4.992a.245.245,0,0,1-.016-.163,6.393,6.393,0,0,0-.909.082l-1.329.217a.248.248,0,0,0-.184.349l2.337,4.992,1.6,9.059h8.828l.085-.484Z" transform="translate(-226.066 -129.762)"/></g></g><g transform="translate(0 0)"><path d="M32.752,225.516a.483.483,0,0,0,.483-.483v-15.01a.724.724,0,0,0-.724-.724H31.242a2.144,2.144,0,0,0-1.919,1.191c-1.233-.253-2.479-.473-3.711-.652a.483.483,0,1,0-.139.957c1.2.175,2.422.389,3.627.636,0,0,0,.006,0,.009V228.57a62.267,62.267,0,0,1-12.482,1.282A62.264,62.264,0,0,1,4.136,228.57V211.442s0-.006,0-.01c1.183-.242,2.381-.453,3.568-.627a.483.483,0,0,0-.14-.957c-1.215.178-2.441.394-3.65.643A2.144,2.144,0,0,0,1.994,209.3H.724a.724.724,0,0,0-.724.723v20a.725.725,0,0,0,.724.724H1.994a2.145,2.145,0,0,0,1.939-1.233,62.681,62.681,0,0,0,25.369,0,2.145,2.145,0,0,0,1.939,1.233h1.271a.725.725,0,0,0,.724-.724v-2.932a.483.483,0,0,0-.967,0v2.688H31.242a1.177,1.177,0,0,1-1.175-1.175V211.441a1.177,1.177,0,0,1,1.175-1.175h1.027v14.767A.483.483,0,0,0,32.752,225.516ZM1.994,229.781H.967V210.266H1.994a1.177,1.177,0,0,1,1.175,1.175v17.165A1.177,1.177,0,0,1,1.994,229.781Z" transform="translate(0 -205.812)"/><path d="M345.541,397.842H356.5a2.1,2.1,0,0,0,2.094-2.094V389.8a2.1,2.1,0,0,0-2.094-2.094h-.179a.483.483,0,1,0,0,.967h.179a1.128,1.128,0,0,1,1.127,1.127v5.945a1.128,1.128,0,0,1-1.127,1.127H345.541a.483.483,0,1,0,0,.967Z" transform="translate(-332.519 -377.74)"/><path d="M197.266,388.677h.168a.483.483,0,1,0,0-.967h-.168a2.1,2.1,0,0,0-2.094,2.094v5.945a2.1,2.1,0,0,0,2.094,2.094h1.776a.483.483,0,0,0,0-.967h-1.776a1.128,1.128,0,0,1-1.127-1.127V389.8A1.128,1.128,0,0,1,197.266,388.677Z" transform="translate(-188.08 -377.74)"/><path d="M263.508,446.707v-5.3a.483.483,0,0,0-.483-.483h-.5a.483.483,0,1,0,0,.967h.017v4.331H249.355v-4.331h.046a.483.483,0,0,0,0-.967h-.529a.483.483,0,0,0-.483.483v5.3a.483.483,0,0,0,.483.483h14.153A.483.483,0,0,0,263.508,446.707Z" transform="translate(-239.363 -429.022)"/><path d="M215.128,119.71l.167.949a.483.483,0,0,0,.952-.168l-.179-1.012a.485.485,0,0,0-.038-.121l-2.2-4.708,1.021-.166a5.937,5.937,0,0,1,2.625.166l.788.234.243,3.525a.483.483,0,0,0,.482.45h.034a.484.484,0,0,0,.449-.516l-.245-3.55.226-.089a5.884,5.884,0,0,1,4.308,0l.289.113-.243,3.526a.483.483,0,0,0,.449.516h.034a.483.483,0,0,0,.482-.45l.244-3.545.722-.214a5.934,5.934,0,0,1,2.625-.166l1.021.166-2.2,4.708a.484.484,0,0,0-.038.121l-1.527,8.659H217.6l-.989-5.609a.483.483,0,0,0-.952.168l.959,5.442h-.052a.483.483,0,0,0,0,.967h10.3a.483.483,0,0,0,0-.967h-.267l1.486-8.428,2.309-4.934a.73.73,0,0,0-.544-1.03l-1.329-.217a6.91,6.91,0,0,0-3.055.194l-.885.262-.464-.182a6.847,6.847,0,0,0-5.014,0l-.464.182-.885-.262a6.91,6.91,0,0,0-3.055-.194l-1.329.217a.73.73,0,0,0-.544,1.03Z" transform="translate(-205.019 -113.327)"/></g></g></g></svg>